<svg version="1.2" xmlns="http://www.w3.org/2000/svg" viewBox="0 0 230 195" width="230" height="195">
	<title>icons-svg</title>
	<style>
		tspan { white-space:pre } 
		.s0 { fill: none;stroke: #000000;stroke-miterlimit:10 } 
		.s1 { fill: none;stroke: #000000;stroke-miterlimit:10;stroke-width: 4 } 
		.s2 { fill: #000000;stroke: #000000;stroke-miterlimit:10 } 
		.s3 { fill: none;stroke: #000000;stroke-miterlimit:10;stroke-width: 2 } 
		.s4 { fill: #ffffff;stroke: #000000;stroke-miterlimit:10;stroke-width: 4 } 
		.s5 { fill: #ffffff;stroke: #000000;stroke-miterlimit:10 } 
	</style>
	<path id="Layer" class="s0" d=""/>
	<filter id="f0">
		<feFlood flood-color="#509abd" flood-opacity="1" />
		<feBlend mode="normal" in2="SourceGraphic"/>
		<feComposite in2="SourceAlpha" operator="in" />
	</filter>
	<g id="Layer" filter="url(#f0)">
		<g id="Layer">
			<path id="Layer" class="s1" d="m225.6 72v112.3h-111.8v-155.7h70.3l26.9 28.1 14.6 15.3z"/>
			<path id="Layer" class="s1" d="m212.1 80.9v85.5h-84.8v-118.6h53.3l20.4 21.4 11.1 11.7z"/>
			<path id="Layer" class="s1" d="m216.6 55l-3.8 3.6-17.6-18.4 3.8-3.7z"/>
			<path id="Layer" fill-rule="evenodd" class="s2" d="m227 42l-12 11.4-14.5-15.3 12-11.3zm-19.6 2l8.7-8.3-3.3-3.4-8.7 8.3zm14.4-2.3l-3.2-3.4-8.7 8.3 3.2 3.3z"/>
		</g>
		<g id="Layer">
			<path id="Layer" fill-rule="evenodd" class="s1" d="m102.8 176.2l-2.9-6.5c-0.3-0.7-0.4-1.4-0.3-2.1 7.4-66.1 0.7-93.5-1.8-101-0.5-1.3-0.1-2.8 0.8-3.9 9.3-10.3 5.8-22.9 5.8-22.9h-0.2-93.7c-2.1 0-3.8 1.6-4 3.7-0.3 4.5 0.2 12.3 6.4 19.2 1 1.1 1.3 2.6 0.8 3.9-2.5 7.5-9.2 35-1.8 101 0.1 0.7 0 1.4-0.3 2.1l-2.9 6.5c-1.2 2.6 0.7 5.6 3.6 5.6h86.9c2.9 0 4.8-3 3.6-5.6z"/>
			<path id="Layer" fill-rule="evenodd" class="s1" d="m95.2 76.6l-80.9 2.8c-2.2 0.1-3.9 1.9-3.8 4.1l-1.2 22.2c-0.5 9.1-0.2 18.2 0.8 27.3l3.3 28.5c0.1 2.1 1.8 3.8 3.9 3.8h75c2.1 0 3.9-1.7 4-3.8l3-80.8c0.1-2.3-1.8-4.2-4.1-4.1z"/>
			<path id="Layer" class="s0" d="m6.6 47.8h98.4"/>
			<path id="Layer" class="s3" d="m8.7 56.2h8.1"/>
			<path id="Layer" class="s3" d="m21 56.2h8.1"/>
			<path id="Layer" class="s3" d="m45.5 56.2h8.2"/>
			<path id="Layer" class="s3" d="m57.8 56.2h8.2"/>
			<path id="Layer" class="s3" d="m33.3 56.2h8.1"/>
			<path id="Layer" class="s3" d="m70.1 56.2h8.2"/>
			<path id="Layer" class="s3" d="m82.4 56.2h8.2"/>
			<path id="Layer" class="s3" d="m94.7 56.2h8.1"/>
		</g>
		<g id="Layer">
			<path id="Layer" class="s4" d="m88.3 4.5h19.6c0.8 0 1.5 0.7 1.5 1.5v15.9c0 0.8-0.7 1.5-1.5 1.5h-19.6c-0.8 0-1.5-0.7-1.5-1.5v-15.9c0-0.8 0.7-1.5 1.5-1.5z"/>
			<path id="Layer" class="s5" d="m89.4 23.3h18"/>
			<path id="Layer" class="s4" d="m107.4 23.3l17.2 24.5c1.1 1.6 1.7 3.6 1.7 5.7v120.4c0 0 1.8 15.2-12.7 15.2-12.3 0-1.4-8.4-14.8-8.4-13.4 0-2.5 8.4-15.9 8.4-13.4 0-11.6-15.2-11.6-15.2v-120.1c0-2.3 0.7-4.5 1.8-6.2l15.7-24.3c0 0 18.6 0 18.6 0z"/>
			<path id="Layer" class="s4" d="m73.1 79.6h51.1v52.6h-51.1z"/>
			<path id="Layer" class="s4" d="m73.1 79.6h51.1v26.3h-51.1z"/>
			<path id="Layer" class="s4" d="m73.1 79.6h51.1v13.1h-51.1z"/>
			<path id="Layer" class="s4" d="m73.1 106.2h51.1v13.1h-51.1z"/>
		</g>
	</g>
</svg>