<?xml version="1.0" encoding="UTF-8"?>
<svg id="Layer_1" data-name="Layer 1" xmlns="http://www.w3.org/2000/svg" version="1.1" viewBox="0 0 595.28 841.89">
  <defs>
    <style>
      .cls-1, .cls-2, .cls-3, .cls-4, .cls-5, .cls-6 {
        stroke: #549dbf;
        stroke-miterlimit: 10;
      }

      .cls-1, .cls-7, .cls-8, .cls-9, .cls-10, .cls-11 {
        fill: #549dbf;
      }

      .cls-2 {
        stroke-width: 2px;
      }

      .cls-2, .cls-4, .cls-5 {
        fill: none;
      }

      .cls-7 {
        font-size: 36.96px;
      }

      .cls-7, .cls-9, .cls-10, .cls-11 {
        font-family: MyriadPro-Regular, 'Myriad Pro';
      }

      .cls-8, .cls-12 {
        stroke-width: 0px;
      }

      .cls-3, .cls-6, .cls-12 {
        fill: #fff;
      }

      .cls-9 {
        font-size: 27.87px;
      }

      .cls-10 {
        font-size: 33.28px;
      }

      .cls-5, .cls-6 {
        stroke-width: 4px;
      }

      .cls-11 {
        font-size: 32.16px;
      }
    </style>
  </defs>
  <path d="M264.57,472"/>


  <g>
    <g>
      <polygon class="cls-5" points="250.56 135.01 250.56 247.28 138.77 247.28 138.77 91.64 209.12 91.64 235.97 119.74 250.56 135.01"/>
      <polygon class="cls-5" points="237.07 143.86 237.07 229.45 152.26 229.45 152.26 110.8 205.63 110.8 226 132.22 237.07 143.86"/>
      <rect class="cls-5" x="228.27" y="97.86" width="5.25" height="25.49" transform="translate(474.45 31.67) rotate(136.45)"/>
      <path class="cls-1" d="M237.46,89.8l-11.93,11.34,14.49,15.25,11.93-11.34-14.49-15.25ZM229.13,103.63l8.7-8.27,3.22,3.39-8.7,8.27-3.22-3.39ZM238.03,112.99l-3.22-3.39,8.7-8.27,3.22,3.39-8.7,8.27Z"/>
    </g>
    <g>
      <path class="cls-5" d="M127.85,239.16l-2.95-6.48c-.29-.65-.41-1.37-.33-2.08,7.41-66.06.72-93.53-1.77-100.97-.45-1.35-.14-2.83.81-3.9,9.28-10.34,5.81-22.89,5.81-22.89h-.24s-93.7,0-93.7,0c-2.06,0-3.79,1.58-3.94,3.64-.34,4.48.18,12.36,6.37,19.25.95,1.06,1.26,2.54.81,3.9-2.49,7.44-9.18,34.92-1.77,100.97.08.71-.03,1.43-.33,2.08l-2.95,6.48h0c-1.19,2.62.72,5.59,3.6,5.59h86.98c2.88,0,4.79-2.97,3.6-5.59Z"/>
      <path class="cls-5" d="M120.2,139.59l-80.93,2.84c-2.19.08-3.89,1.91-3.81,4.1l-1.15,22.19c-.47,9.09-.19,18.21.83,27.26l3.24,28.54c.08,2.12,1.82,3.8,3.95,3.8h74.98c2.13,0,3.87-1.68,3.95-3.8l3.03-80.83c.09-2.29-1.79-4.18-4.09-4.1Z"/>
      <line class="cls-4" x1="31.56" y1="110.8" x2="129.97" y2="110.8"/>
      <line class="cls-2" x1="33.68" y1="119.23" x2="41.83" y2="119.23"/>
      <line class="cls-2" x1="45.97" y1="119.23" x2="54.12" y2="119.23"/>
      <line class="cls-2" x1="70.54" y1="119.23" x2="78.69" y2="119.23"/>
      <line class="cls-2" x1="82.83" y1="119.23" x2="90.98" y2="119.23"/>
      <line class="cls-2" x1="58.25" y1="119.23" x2="66.4" y2="119.23"/>
      <line class="cls-2" x1="95.12" y1="119.23" x2="103.27" y2="119.23"/>
      <line class="cls-2" x1="107.41" y1="119.23" x2="115.56" y2="119.23"/>
      <line class="cls-2" x1="119.7" y1="119.23" x2="127.85" y2="119.23"/>
    </g>
    <g>
      <rect class="cls-6" x="111.83" y="67.51" width="22.58" height="18.84" rx="1.49" ry="1.49"/>
      <line class="cls-3" x1="114.42" y1="86.27" x2="132.43" y2="86.27"/>
      <path class="cls-6" d="M132.42,86.27l17.15,24.57c1.09,1.57,1.7,3.59,1.7,5.68v120.33s1.81,15.25-12.65,15.25c-12.29,0-1.45-8.38-14.82-8.38s-2.47,8.38-15.9,8.38-11.56-15.25-11.56-15.25v-120.07c0-2.27.62-4.47,1.76-6.22l15.72-24.29h18.61Z"/>
      <rect class="cls-6" x="98.12" y="142.57" width="51.08" height="52.63"/>
      <rect class="cls-6" x="98.12" y="142.57" width="51.08" height="26.32"/>
      <rect class="cls-6" x="98.12" y="142.57" width="51.08" height="13.16"/>
      <rect class="cls-6" x="98.12" y="169.19" width="51.08" height="13.16"/>
    </g>
  </g>

  <!-- <text class="cls-10" transform="translate(21.91 298.9)"><tspan x="0" y="0" xml:space="preserve"> Food &amp; Beverage</tspan></text> -->
</svg>