<?xml version="1.0" encoding="UTF-8"?>
<svg id="Layer_1" data-name="Layer 1" xmlns="http://www.w3.org/2000/svg" version="1.1" viewBox="0 0 595.28 841.89">
  <defs>
    <style>
      .cls-1, .cls-2, .cls-3, .cls-4, .cls-5, .cls-6 {
        stroke: #549dbf;
        stroke-miterlimit: 10;
      }

      .cls-1, .cls-7, .cls-8, .cls-9, .cls-10, .cls-11 {
        fill: #549dbf;
      }

      .cls-2 {
        stroke-width: 2px;
      }

      .cls-2, .cls-4, .cls-5 {
        fill: none;
      }

      .cls-7 {
        font-size: 36.96px;
      }

      .cls-7, .cls-9, .cls-10, .cls-11 {
        font-family: MyriadPro-Regular, 'Myriad Pro';
      }

      .cls-8, .cls-12 {
        stroke-width: 0px;
      }

      .cls-3, .cls-6, .cls-12 {
        fill: #fff;
      }

      .cls-9 {
        font-size: 27.87px;
      }

      .cls-10 {
        font-size: 33.28px;
      }

      .cls-5, .cls-6 {
        stroke-width: 4px;
      }

      .cls-11 {
        font-size: 32.16px;
      }
    </style>
  </defs>
  <path d="M264.57,472"/>

  <g>
    <g>
      <path class="cls-8" d="M148.76,607.56c-.2-.04-.31-.09-.41-.09-4.29.3-4.84-1.03-4.68-4.94.09-2.22.02-4.44.02-6.67,0-3.21.5-3.78,3.79-4.15-1.43-3.33-2.83-6.62-4.39-10.25-.26.72-.39,1.05-.51,1.38-3.4,9.48-12.34,15.19-22.36,14.12-.86-.09-2.06-1.04-2.3-1.82-.24-.79.29-2.11.93-2.79,1.62-1.73,3.63-3.09,5.21-4.84,2.17-2.4,3.46-5.8,3.66-8.61-1.89-.6-2.34-2.03-2.27-3.91.1-2.87.01-5.74.03-8.62.01-2.22.94-3.14,3.18-3.15,10.89,0,21.78-.03,32.67.04.89,0,1.92.4,2.65.94,4.81,3.52,9.55,7.12,14.32,10.69.5.38,1.03.72,1.78,1.25,0-2.57,0-4.88,0-7.18-.04-10.29,3.99-18.57,12.17-24.83.45-.35.78-1.14.79-1.73.07-4.12.03-8.24.04-12.36,0-2.34.91-3.25,3.25-3.25,6.5-.01,13-.01,19.5,0,2.33,0,3.24.91,3.25,3.25.01,3.9.08,7.81-.04,11.71-.04,1.4.47,2.09,1.61,2.78,11.4,6.88,22.78,13.79,34.13,20.76,13.47,8.27,21.34,20.28,23.68,35.89.34,2.24.41,4.54.41,6.81.03,22.06.02,44.12.02,66.18,0,8.46-5.47,13.93-13.93,13.93-23.51,0-47.03-.02-70.54.02-3.24,0-6.23-.59-9.02-2.58-.52,2.21-2.06,2.59-4.02,2.58-13.92-.05-27.85-.03-41.77-.03-3,0-3.76-.75-3.76-3.72,0-12.41,0-24.82,0-37.24,0-6.63,2.81-11.65,8.52-15.05,1.12-.66,2.27-1.29,3.29-2.09,1.55-1.21,1.45-2.42-.13-3.52-4.84-3.37-5.29-10.59-.61-14.09,1.86-1.39,2.21-2.79,1.81-4.85ZM273.64,633.41c.03-.34.07-.55.07-.76,0-8.83.27-17.68-.09-26.49-.61-14.94-7.12-26.96-19.67-35.12-12.24-7.96-24.89-15.31-37.38-22.9-.56-.34-1.31-.49-1.98-.49-5.58-.04-11.16-.06-16.74.02-.89.01-1.94.33-2.65.87-6.47,4.88-9.87,11.42-9.9,19.52-.07,21.35-.02,42.7-.02,64.05,0,.42.04.83.07,1.31h88.27ZM185.42,638.75v31.02h88.22v-31.02h-88.22ZM179.94,643.82c.07-.23.13-.33.13-.43.01-.43.02-.87.02-1.3-.18-11.54-3.89-21.81-10.88-30.99-2.03-2.67-4.17-4.23-7.68-3.7-2.01.31-4.11.05-6.16.06-.41,0-.82.08-1.28.12,0,1.15.03,2.18,0,3.2-.06,2.04-.94,3.63-2.65,4.76-3.49,2.31-3.45,4.88.07,7.27,1.75,1.18,2.64,2.85,2.57,4.96-.11,2.96-1.43,5.29-3.91,6.92-1.26.83-2.61,1.53-3.88,2.36-2.45,1.59-4.08,3.79-4.8,6.75h38.46ZM141.2,649.16v23.22h38.81v-23.22h-38.81ZM185.33,675.17c.03.49.02.92.1,1.32.76,3.93,3.91,6.41,8.19,6.41,23.93,0,47.87,0,71.8,0,.38,0,.76,0,1.14-.02,4.03-.33,7.26-3.85,7.02-7.71h-88.24ZM177.15,580.53c-5.42-4.07-10.51-7.93-15.65-11.72-.46-.34-1.22-.37-1.84-.37-9.1-.02-18.2-.02-27.3-.01-.52,0-1.05.05-1.55.07v5.13c4.02,0,7.91.09,11.81-.04,2.05-.06,3.18.73,3.94,2.6,1.98,4.86,4.08,9.67,6.18,14.48.2.46.71,1.11,1.09,1.12,3.5.09,7.01.05,10.66.05,0-1.55,0-2.95,0-4.34,0-2.27.4-2.83,2.53-3.55,3.26-1.11,6.52-2.2,10.12-3.41ZM180.04,677.83h-38.86v4.98h38.86v-4.98ZM179.94,618.21v-33.1c-3.26,1.09-6.34,2.09-9.39,3.17-.37.13-.74.7-.81,1.12-.13.77-.04,1.57-.04,2.44.65,0,1.08,0,1.51,0,2.97.02,3.69.76,3.69,3.78,0,2.6-.07,5.2.02,7.8.06,1.73-.2,3.21-1.76,3.94,2.32,3.71,4.58,7.32,6.77,10.83ZM198.38,542.3h15.4v-10.21h-15.4v10.21ZM169.61,597.15h-20.6v5.02h20.6v-5.02ZM128.3,590.71c5.12-1.56,9.9-7.53,9.7-11.77h-4.87c-.57,4.29-2.11,8.11-4.83,11.77Z"/>
      <path class="cls-8" d="M268.52,616.49c0,2.87.01,5.74,0,8.61-.01,2.22-.94,3.15-3.17,3.16-3.19.02-6.39,0-9.58,0-4.26,0-7.95-1.47-10.97-4.47-5.34-5.3-10.67-10.62-15.97-15.97-3.04-3.07-4.52-6.81-4.51-11.13,0-5.74,0-11.48,0-17.23,0-4.25,1.77-7.59,5.49-9.66,3.78-2.1,7.58-1.81,11.23.51,3.24,2.06,6.55,4.03,9.7,6.23,11.39,7.95,17.27,18.94,17.77,32.8.09,2.38.01,4.77.01,7.15h.01ZM263.31,623.05c0-4.63.09-9.12-.02-13.59-.25-10.2-4-18.97-11.77-25.59-4.13-3.52-8.9-6.3-13.49-9.24-3.98-2.54-8.48.07-8.51,4.83-.03,5.85-.02,11.69,0,17.54,0,2.66.89,5.02,2.76,6.91,5.44,5.5,10.92,10.97,16.41,16.43,1.72,1.7,3.85,2.63,6.26,2.71,2.7.09,5.41.02,8.36.02Z"/>
      <path class="cls-8" d="M193.1,577.89c.11-4.11,1.19-8.85,4.47-12.85,4.76-5.82,12.12-5.92,16.92-.15,3.97,4.78,4.99,10.46,4.47,16.49-.31,3.67-1.39,7.11-3.49,10.18-4.98,7.29-13.71,7.3-18.73.04-2.33-3.37-3.65-7.98-3.64-13.7ZM213.93,578.85c-.1-3.64-.8-7.11-2.99-10.11-2.82-3.86-6.81-3.86-9.66-.02-3.95,5.31-3.96,14.91-.01,20.22,2.86,3.84,6.83,3.87,9.66.01,2.2-3,2.9-6.47,3-10.1Z"/>
    </g>
    <g>
      <path class="cls-8" d="M74.27,609.96c8.07-.78,16.07-1.36,24.02-2.41,2.77-.36,5.54-1.59,8.03-2.93,1.85-1,3.35-2.73,4.84-4.3.93-.98,1.77-1.39,3.06-.92,10.21,3.72,17.55,13.96,17.72,24.8.04,2.54.04,5.07,0,7.61-.01.76.19,1.2.9,1.6,4.04,2.28,6.11,5.8,6.12,10.42.04,10.78.04,21.55,0,32.33-.02,6.93-5.1,11.98-12.05,11.98-28.63.02-57.26.01-85.89,0-7.04,0-12.08-5.06-12.11-12.07-.02-3.36.11-6.73-.02-10.09-.37-9.35-.76-18.7-1.28-28.04-.55-9.83-1.27-19.65-1.92-29.48-.74-11.33-1.49-22.67-2.23-34-.52-7.93-1.05-15.86-1.54-23.79-.13-2.07.76-2.99,2.82-2.99,16.83,0,33.65,0,50.48,0,2.06,0,2.97.92,2.84,2.98-.61,9.54-1.25,19.07-1.87,28.6-.64,9.88-1.28,19.75-1.92,29.63-.02.38,0,.76,0,1.09ZM27.35,561.74c2.04,31.28,4.07,62.42,6.1,93.53h21.23c0-3.82-.01-7.56,0-11.31.02-4.68,2.04-8.25,6.12-10.57.7-.4.93-.82.91-1.59-.05-2.34.02-4.68-.02-7.02-.1-5.37,2.32-9.31,6.74-12.18.47-.3.88-1.02.92-1.58.33-3.88.56-7.78.82-11.67.65-9.87,1.3-19.75,1.94-29.62.17-2.65.31-5.29.47-7.99H27.35ZM134.19,674.02v-27.92H59.44v27.92h74.75ZM126.97,622.51c.05-.15.11-.24.1-.32-.9-8.13-5.54-13.59-12.46-17.41-.25-.14-.84.13-1.17.35-2.37,1.58-4.57,3.52-7.11,4.75-5.57,2.69-11.63,3.39-17.76,3.64-3.31.13-6.63.21-9.91.59-3.62.42-7.07,1.47-9.79,4.11-1.19,1.15-2.04,2.52-2.24,4.28h60.34ZM133.64,641.23c.02-.17.07-.27.04-.35-.06-.18-.13-.37-.23-.53-1.51-2.62-3.81-3.74-6.79-3.74-19.89.02-39.79,0-59.68.01-.39,0-.78,0-1.17.03-2.78.24-5.26,2.18-5.8,4.58h73.63ZM133.64,678.84H60.02c-.02.16-.07.27-.05.35.06.18.13.37.23.53,1.51,2.62,3.81,3.74,6.79,3.74,19.89-.02,39.79,0,59.68-.01.39,0,.78,0,1.17-.03,2.18-.11,5.36-1.95,5.8-4.58ZM127.2,627.36h-60.7v4.51h60.7v-4.51ZM27.03,556.92h45.94c.08-1.54.15-2.97.23-4.46H26.77c.09,1.57.18,3.02.26,4.46ZM40.63,674.03c0-.79,0-1.42,0-2.05.05-4.25,3.02-7.22,7.29-7.25,2.22-.02,4.43,0,6.67,0v-4.59h-20.89v13.9h6.93ZM54.76,678.84h-20.53c.68,2.66,3.31,4.57,6.42,4.59,5.17.04,10.34.01,15.51,0,.21,0,.41-.07.57-.1-.68-1.56-1.32-3.02-1.97-4.5ZM45.32,673.99h9.36c0-.58,0-1.05,0-1.53-.01-2.27-.79-3.04-3.08-3.05-1.26,0-2.53-.03-3.79,0-1.56.05-2.42.91-2.49,2.45-.03.67,0,1.35,0,2.13Z"/>
      <path class="cls-8" d="M49.99,585.12c-4.49,0-8.98,0-13.46,0-2.1,0-2.91-.83-2.92-2.93-.01-4.29-.01-8.58,0-12.88,0-2.1.82-2.91,2.93-2.92,8.98,0,17.95,0,26.93,0,2.1,0,2.91.82,2.92,2.93.01,4.29.01,8.58,0,12.88,0,2.1-.83,2.91-2.93,2.92-4.49.01-8.98,0-13.46,0ZM38.39,571.13v9.19h23.23v-9.19h-23.23Z"/>
      <path class="cls-8" d="M50,594.48c-2.93,0-5.85,0-8.78,0-1.85,0-2.92-.88-2.92-2.34,0-1.46,1.07-2.34,2.91-2.34,5.85,0,11.71,0,17.56,0,1.85,0,2.92.88,2.92,2.34,0,1.46-1.07,2.33-2.92,2.34-2.93.01-5.85,0-8.78,0Z"/>
      <path class="cls-8" d="M97.99,669.43c-5.3-.06-9.37-.52-13.19-2.12-1.51-.63-3-1.46-4.25-2.5-3.29-2.72-3.23-6.81,0-9.59,2.12-1.83,4.65-2.82,7.33-3.46,7.04-1.67,14.02-1.58,20.85.96,1.44.53,2.85,1.31,4.06,2.26,3.72,2.9,3.68,7.22,0,10.16-2.59,2.07-5.67,3.03-8.84,3.6-2.34.42-4.74.55-5.95.69ZM96.89,664.73c3.74-.07,7.46-.48,10.93-2.07,1.26-.57,3.1-1.16,2.87-2.67-.15-.99-1.7-2.09-2.86-2.55-7.32-2.9-14.73-2.92-22.05.02-1.15.46-1.99,1.68-2.98,2.55.98.88,1.82,2.02,2.95,2.58,3.47,1.71,7.27,2.08,11.13,2.14Z"/>
    </g>
  </g>

 <!-- <text class="cls-9" transform="translate(21.91 722.83)"><tspan x="0" y="0">Home &amp; Personal Care</tspan></text> -->
</svg>