<svg version="1.2" xmlns="http://www.w3.org/2000/svg" viewBox="0 0 270 178" width="270" height="178">
	<title>icons-svg</title>
	<style>
		.s0 { fill: none;stroke: #000000;stroke-miterlimit:10 } 
		.s1 { fill: #000000 } 
	</style>
	<path id="Layer" class="s0" d=""/>
	<filter id="f0">
		<feFlood flood-color="#509abd" flood-opacity="1" />
		<feBlend mode="normal" in2="SourceGraphic"/>
		<feComposite in2="SourceAlpha" operator="in" />
	</filter>
	<g id="Layer" filter="url(#f0)">
		<g id="Layer">
			<path id="Layer" fill-rule="evenodd" class="s1" d="m133.7 89.5q0 0 0 0.1 0 0 0.1 0zm-0.4-0.1c-4.3 0.3-4.9-1-4.7-4.9 0.1-2.3 0-4.5 0-6.7 0-3.2 0.5-3.8 3.8-4.2-1.4-3.3-2.8-6.6-4.4-10.2-0.2 0.7-0.4 1-0.5 1.4-3.4 9.5-12.3 15.2-22.3 14.1-0.9-0.1-2.1-1-2.3-1.8-0.3-0.8 0.2-2.1 0.9-2.8 1.6-1.7 3.6-3.1 5.2-4.9 2.2-2.4 3.5-5.8 3.7-8.6-1.9-0.6-2.4-2-2.3-3.9 0.1-2.8 0-5.7 0-8.6 0-2.2 1-3.1 3.2-3.1 10.9 0 21.8-0.1 32.7 0 0.9 0 1.9 0.4 2.6 0.9 4.8 3.6 9.6 7.2 14.3 10.7 0.5 0.4 1.1 0.7 1.8 1.3 0-2.6 0-4.9 0-7.2 0-10.3 4-18.6 12.2-24.8 0.4-0.4 0.8-1.2 0.8-1.8 0-4.1 0-8.2 0-12.3 0-2.4 0.9-3.3 3.3-3.3q9.7 0 19.5 0c2.3 0 3.2 0.9 3.2 3.3 0 3.9 0.1 7.8 0 11.7-0.1 1.4 0.4 2.1 1.6 2.8q17.1 10.3 34.1 20.7c13.5 8.3 21.4 20.3 23.7 35.9 0.3 2.3 0.4 4.6 0.4 6.8q0 33.1 0 66.2c0 8.5-5.4 13.9-13.9 13.9-23.5 0-47 0-70.5 0-3.3 0-6.3-0.5-9.1-2.5-0.5 2.2-2 2.6-4 2.5-13.9 0-27.8 0-41.8 0-3 0-3.7-0.7-3.7-3.7q0-18.6 0-37.2c0-6.7 2.8-11.7 8.5-15.1 1.1-0.6 2.3-1.3 3.3-2.1 1.5-1.2 1.4-2.4-0.1-3.5-4.9-3.4-5.3-10.6-0.7-14.1 1.9-1.4 2.3-2.8 1.9-4.8-0.2-0.1-0.3-0.1-0.4-0.1zm125.3 25.9c0-0.3 0-0.5 0-0.7 0-8.8 0.3-17.7 0-26.5-0.7-14.9-7.2-27-19.7-35.1-12.3-8-24.9-15.3-37.4-22.9-0.6-0.4-1.3-0.5-2-0.5-5.6-0.1-11.1-0.1-16.7 0-0.9 0-2 0.3-2.7 0.9-6.4 4.9-9.8 11.4-9.9 19.5 0 21.3 0 42.7 0 64 0 0.5 0 0.9 0.1 1.4h88.2zm-88.2 5.3v31h88.2v-31zm-5.4 5q0 0 0 0.1zm0.1-0.4q0-0.7 0-1.3c-0.2-11.6-3.9-21.9-10.9-31-2-2.7-4.1-4.3-7.7-3.7-2 0.3-4.1 0-6.1 0-0.4 0-0.8 0.1-1.3 0.1 0 1.2 0 2.2 0 3.2q-0.1 3.1-2.6 4.8c-3.5 2.3-3.5 4.9 0 7.3 1.8 1.2 2.7 2.8 2.6 4.9-0.1 3-1.4 5.3-3.9 7-1.3 0.8-2.6 1.5-3.9 2.3-2.4 1.6-4.1 3.8-4.8 6.8h38.5c0-0.3 0.1-0.4 0.1-0.4zm-38.9 5.7v23.2h38.8v-23.2zm44.2 26c0 0.5 0 0.9 0.1 1.4 0.7 3.9 3.9 6.4 8.1 6.4q36 0 71.8 0 0.6 0 1.2-0.1c4-0.3 7.2-3.8 7-7.7 0 0-88.2 0-88.2 0zm-8.2-94.6c-5.4-4.1-10.5-7.9-15.7-11.7-0.4-0.4-1.2-0.4-1.8-0.4q-13.7 0-27.3 0c-0.5 0-1.1 0-1.6 0.1v5.1c4.1 0 7.9 0.1 11.8 0 2.1-0.1 3.2 0.7 4 2.6 2 4.8 4.1 9.6 6.2 14.4 0.2 0.5 0.7 1.1 1.1 1.2 3.5 0 7 0 10.6 0 0-1.5 0-2.9 0-4.3 0-2.3 0.4-2.9 2.5-3.6 3.3-1.1 6.6-2.2 10.2-3.4zm2.9 97.3h-38.9v5h38.9zm-0.1-59.6v-33.1c-3.3 1.1-6.4 2.1-9.4 3.1-0.4 0.2-0.8 0.7-0.8 1.2-0.2 0.7-0.1 1.5-0.1 2.4 0.7 0 1.1 0 1.5 0 3 0 3.7 0.8 3.7 3.8 0 2.6 0 5.2 0 7.8 0.1 1.7-0.2 3.2-1.7 3.9q3.5 5.6 6.8 10.8zm18.4-75.9h15.4v-10.2h-15.4zm-28.8 54.9h-20.6v5h20.6zm-41.3-6.4c5.1-1.6 9.9-7.6 9.7-11.8h-4.9c-0.5 4.3-2.1 8.1-4.8 11.8z"/>
			<path id="Layer" fill-rule="evenodd" class="s1" d="m253.5 98.5q0 4.3 0 8.6c0 2.2-0.9 3.2-3.2 3.2q-4.7 0-9.5 0c-4.3 0-8-1.5-11-4.5q-8-8-16-16c-3-3.1-4.5-6.8-4.5-11.1q0-8.6 0-17.2c0-4.3 1.8-7.6 5.5-9.7 3.8-2.1 7.6-1.8 11.2 0.5 3.3 2.1 6.6 4 9.7 6.2 11.4 8 17.3 19 17.8 32.8 0.1 2.4 0 4.8 0 7.2zm-5.2 6.5c0-4.6 0.1-9.1 0-13.5-0.3-10.2-4-19-11.8-25.6-4.1-3.6-8.9-6.3-13.5-9.3-3.9-2.5-8.4 0.1-8.5 4.9q0 8.7 0 17.5c0 2.7 0.9 5 2.8 6.9q8.1 8.3 16.4 16.4c1.7 1.7 3.8 2.7 6.2 2.7 2.7 0.1 5.5 0.1 8.4 0.1z"/>
			<path id="Layer" fill-rule="evenodd" class="s1" d="m178.1 59.9c0.1-4.1 1.2-8.9 4.5-12.9 4.7-5.8 12.1-5.9 16.9-0.1 4 4.8 5 10.5 4.5 16.5-0.3 3.6-1.4 7.1-3.5 10.2-5 7.2-13.7 7.3-18.8 0-2.3-3.4-3.6-8-3.6-13.7zm20.8 1c-0.1-3.7-0.8-7.2-3-10.2-2.8-3.8-6.8-3.8-9.6 0-4 5.3-4 14.9 0 20.2 2.8 3.9 6.8 3.9 9.6 0.1 2.2-3 2.9-6.5 3-10.1z"/>
		</g>
		<g id="Layer">
			<path id="Layer" fill-rule="evenodd" class="s1" d="m83.3 89.6c2.8-0.4 5.5-1.6 8-3 1.9-1 3.4-2.7 4.9-4.3 0.9-1 1.7-1.4 3-0.9 10.2 3.7 17.6 14 17.7 24.8q0.1 3.8 0 7.6c0 0.8 0.2 1.2 0.9 1.6 4.1 2.3 6.2 5.8 6.2 10.4q0 16.2 0 32.4c-0.1 6.9-5.1 11.9-12.1 11.9q-42.9 0.1-85.9 0c-7 0-12.1-5-12.1-12 0-3.4 0.1-6.8 0-10.1-0.4-9.4-0.8-18.7-1.3-28.1-0.5-9.8-1.3-19.6-1.9-29.4q-1.1-17-2.2-34-0.8-11.9-1.6-23.8c-0.1-2.1 0.8-3 2.8-3q25.3 0 50.5 0c2.1 0 3 0.9 2.9 3q-1 14.3-1.9 28.6-1 14.8-1.9 29.6 0 0.6 0 1.1c8-0.8 16-1.4 24-2.4zm-70.9-45.9c2 31.3 4 62.5 6.1 93.6h21.2c0-3.9 0-7.6 0-11.3 0-4.7 2-8.3 6.1-10.6 0.7-0.4 0.9-0.8 0.9-1.6 0-2.3 0-4.7 0-7-0.1-5.4 2.3-9.3 6.7-12.2 0.5-0.3 0.9-1 1-1.6 0.3-3.9 0.5-7.8 0.8-11.6q0.9-14.9 1.9-29.7c0.2-2.6 0.3-5.3 0.5-8zm106.8 112.3v-27.9h-74.7v27.9zm-7.2-51.5c0-0.1 0.1-0.2 0.1-0.3-1-8.1-5.6-13.6-12.5-17.4-0.3-0.2-0.9 0.1-1.2 0.3-2.4 1.6-4.6 3.5-7.1 4.8-5.6 2.7-11.6 3.4-17.8 3.6-3.3 0.1-6.6 0.2-9.9 0.6-3.6 0.4-7 1.5-9.8 4.1-1.1 1.2-2 2.5-2.2 4.3 0 0 60.3 0 60.4 0zm6.6 18.7c0-0.1 0.1-0.2 0.1-0.3q-0.1-0.3-0.3-0.5c-1.5-2.7-3.8-3.8-6.8-3.8-19.9 0-39.8 0-59.6 0q-0.6 0-1.2 0c-2.8 0.3-5.3 2.2-5.8 4.6zm0 37.6h-73.6c0 0.2-0.1 0.3-0.1 0.4q0.1 0.3 0.3 0.5c1.5 2.6 3.8 3.8 6.7 3.8 19.9-0.1 39.8 0 59.7 0q0.6 0 1.2-0.1c2.2-0.1 5.4-1.9 5.8-4.6zm-6.4-51.4h-60.7v4.5h60.7zm-100.2-70.5h45.9c0.1-1.5 0.2-2.9 0.3-4.4h-46.5c0.1 1.5 0.2 3 0.3 4.4zm13.6 117.1c0-0.7 0-1.4 0-2 0-4.3 3-7.2 7.3-7.3 2.2 0 4.4 0 6.6 0v-4.6h-20.8v13.9c0 0 6.9 0 6.9 0zm14.1 4.9h-20.5c0.7 2.6 3.3 4.5 6.4 4.5 5.2 0.1 10.3 0.1 15.5 0 0.2 0 0.4 0 0.6-0.1-0.7-1.5-1.3-3-2-4.4zm-9.4-4.9h9.3c0-0.6 0-1 0-1.5 0-2.3-0.8-3.1-3-3.1-1.3 0-2.6 0-3.8 0-1.6 0.1-2.5 0.9-2.5 2.5-0.1 0.6 0 1.3 0 2.1z"/>
			<path id="Layer" fill-rule="evenodd" class="s1" d="m35 67.1q-6.7 0-13.5 0c-2.1 0-2.9-0.8-2.9-2.9q0-6.4 0-12.9c0-2.1 0.8-2.9 2.9-2.9q13.5 0 27 0c2.1 0 2.9 0.8 2.9 2.9q0 6.5 0 12.9c0 2.1-0.8 2.9-2.9 2.9q-6.8 0-13.5 0zm-11.6-14v9.2h23.2v-9.2z"/>
			<path id="Layer" class="s1" d="m35 76.5q-4.4 0-8.8 0c-1.8 0-2.9-0.9-2.9-2.4 0-1.4 1.1-2.3 2.9-2.3q8.8 0 17.6 0c1.8 0 2.9 0.9 2.9 2.3 0 1.5-1.1 2.4-2.9 2.4q-4.4 0-8.8 0z"/>
			<path id="Layer" fill-rule="evenodd" class="s1" d="m83 151.4c-5.3 0-9.4-0.5-13.2-2.1-1.5-0.6-3-1.5-4.3-2.5-3.2-2.7-3.2-6.8 0-9.6 2.2-1.8 4.7-2.8 7.4-3.4 7-1.7 14-1.6 20.8 0.9 1.5 0.5 2.9 1.3 4.1 2.3 3.7 2.9 3.7 7.2 0 10.1-2.6 2.1-5.7 3.1-8.9 3.6-2.3 0.5-4.7 0.6-5.9 0.7zm-1.1-4.7c3.7 0 7.4-0.5 10.9-2 1.3-0.6 3.1-1.2 2.9-2.7-0.2-1-1.7-2.1-2.9-2.6-7.3-2.9-14.7-2.9-22 0.1-1.2 0.4-2 1.6-3 2.5 1 0.9 1.8 2 2.9 2.6 3.5 1.7 7.3 2.1 11.2 2.1z"/>
		</g>
	</g>
</svg>