<?xml version="1.0" encoding="UTF-8"?>
<svg id="Layer_1" data-name="Layer 1" xmlns="http://www.w3.org/2000/svg" version="1.1" viewBox="0 0 595.28 841.89">
  <defs>
    <style>
      .cls-1, .cls-2, .cls-3, .cls-4, .cls-5, .cls-6 {
        stroke: #000;
        stroke-miterlimit: 10;
      }

      .cls-1, .cls-7, .cls-8, .cls-9, .cls-10, .cls-11 {
        fill: #000;
      }

      .cls-2 {
        stroke-width: 2px;
      }

      .cls-2, .cls-4, .cls-5 {
        fill: none;
      }

      .cls-7 {
        font-size: 36.96px;
      }

      .cls-7, .cls-9, .cls-10, .cls-11 {
        font-family: MyriadPro-Regular, 'Myriad Pro';
      }

      .cls-8, .cls-12 {
        stroke-width: 0px;
      }

      .cls-3, .cls-6, .cls-12 {
        fill: #fff;
      }

      .cls-9 {
        font-size: 27.87px;
      }

      .cls-10 {
        font-size: 33.28px;
      }

      .cls-5, .cls-6 {
        stroke-width: 4px;
      }

      .cls-11 {
        font-size: 32.16px;
      }
    </style>
  </defs>
  <path class="cls-4" d="M264.57,472"/>
  
  <g>
    <g>
      <polygon class="cls-5" points="250.56 135.01 250.56 247.28 138.77 247.28 138.77 91.64 209.12 91.64 235.97 119.74 250.56 135.01"/>
      <polygon class="cls-5" points="237.07 143.86 237.07 229.45 152.26 229.45 152.26 110.8 205.63 110.8 226 132.22 237.07 143.86"/>
      <rect class="cls-5" x="228.27" y="97.86" width="5.25" height="25.49" transform="translate(474.45 31.67) rotate(136.45)"/>
      <path class="cls-1" d="M237.46,89.8l-11.93,11.34,14.49,15.25,11.93-11.34-14.49-15.25ZM229.13,103.63l8.7-8.27,3.22,3.39-8.7,8.27-3.22-3.39ZM238.03,112.99l-3.22-3.39,8.7-8.27,3.22,3.39-8.7,8.27Z"/>
    </g>
    <g>
      <path class="cls-5" d="M127.85,239.16l-2.95-6.48c-.29-.65-.41-1.37-.33-2.08,7.41-66.06.72-93.53-1.77-100.97-.45-1.35-.14-2.83.81-3.9,9.28-10.34,5.81-22.89,5.81-22.89h-.24s-93.7,0-93.7,0c-2.06,0-3.79,1.58-3.94,3.64-.34,4.48.18,12.36,6.37,19.25.95,1.06,1.26,2.54.81,3.9-2.49,7.44-9.18,34.92-1.77,100.97.08.71-.03,1.43-.33,2.08l-2.95,6.48h0c-1.19,2.62.72,5.59,3.6,5.59h86.98c2.88,0,4.79-2.97,3.6-5.59Z"/>
      <path class="cls-5" d="M120.2,139.59l-80.93,2.84c-2.19.08-3.89,1.91-3.81,4.1l-1.15,22.19c-.47,9.09-.19,18.21.83,27.26l3.24,28.54c.08,2.12,1.82,3.8,3.95,3.8h74.98c2.13,0,3.87-1.68,3.95-3.8l3.03-80.83c.09-2.29-1.79-4.18-4.09-4.1Z"/>
      <line class="cls-4" x1="31.56" y1="110.8" x2="129.97" y2="110.8"/>
      <line class="cls-2" x1="33.68" y1="119.23" x2="41.83" y2="119.23"/>
      <line class="cls-2" x1="45.97" y1="119.23" x2="54.12" y2="119.23"/>
      <line class="cls-2" x1="70.54" y1="119.23" x2="78.69" y2="119.23"/>
      <line class="cls-2" x1="82.83" y1="119.23" x2="90.98" y2="119.23"/>
      <line class="cls-2" x1="58.25" y1="119.23" x2="66.4" y2="119.23"/>
      <line class="cls-2" x1="95.12" y1="119.23" x2="103.27" y2="119.23"/>
      <line class="cls-2" x1="107.41" y1="119.23" x2="115.56" y2="119.23"/>
      <line class="cls-2" x1="119.7" y1="119.23" x2="127.85" y2="119.23"/>
    </g>
    <g>
      <rect class="cls-6" x="111.83" y="67.51" width="22.58" height="18.84" rx="1.49" ry="1.49"/>
      <line class="cls-3" x1="114.42" y1="86.27" x2="132.43" y2="86.27"/>
      <path class="cls-6" d="M132.42,86.27l17.15,24.57c1.09,1.57,1.7,3.59,1.7,5.68v120.33s1.81,15.25-12.65,15.25c-12.29,0-1.45-8.38-14.82-8.38s-2.47,8.38-15.9,8.38-11.56-15.25-11.56-15.25v-120.07c0-2.27.62-4.47,1.76-6.22l15.72-24.29h18.61Z"/>
      <rect class="cls-6" x="98.12" y="142.57" width="51.08" height="52.63"/>
      <rect class="cls-6" x="98.12" y="142.57" width="51.08" height="26.32"/>
      <rect class="cls-6" x="98.12" y="142.57" width="51.08" height="13.16"/>
      <rect class="cls-6" x="98.12" y="169.19" width="51.08" height="13.16"/>
    </g>
  </g>

  <!-- <g>
    <g>
      <path class="cls-8" d="M148.76,607.56c-.2-.04-.31-.09-.41-.09-4.29.3-4.84-1.03-4.68-4.94.09-2.22.02-4.44.02-6.67,0-3.21.5-3.78,3.79-4.15-1.43-3.33-2.83-6.62-4.39-10.25-.26.72-.39,1.05-.51,1.38-3.4,9.48-12.34,15.19-22.36,14.12-.86-.09-2.06-1.04-2.3-1.82-.24-.79.29-2.11.93-2.79,1.62-1.73,3.63-3.09,5.21-4.84,2.17-2.4,3.46-5.8,3.66-8.61-1.89-.6-2.34-2.03-2.27-3.91.1-2.87.01-5.74.03-8.62.01-2.22.94-3.14,3.18-3.15,10.89,0,21.78-.03,32.67.04.89,0,1.92.4,2.65.94,4.81,3.52,9.55,7.12,14.32,10.69.5.38,1.03.72,1.78,1.25,0-2.57,0-4.88,0-7.18-.04-10.29,3.99-18.57,12.17-24.83.45-.35.78-1.14.79-1.73.07-4.12.03-8.24.04-12.36,0-2.34.91-3.25,3.25-3.25,6.5-.01,13-.01,19.5,0,2.33,0,3.24.91,3.25,3.25.01,3.9.08,7.81-.04,11.71-.04,1.4.47,2.09,1.61,2.78,11.4,6.88,22.78,13.79,34.13,20.76,13.47,8.27,21.34,20.28,23.68,35.89.34,2.24.41,4.54.41,6.81.03,22.06.02,44.12.02,66.18,0,8.46-5.47,13.93-13.93,13.93-23.51,0-47.03-.02-70.54.02-3.24,0-6.23-.59-9.02-2.58-.52,2.21-2.06,2.59-4.02,2.58-13.92-.05-27.85-.03-41.77-.03-3,0-3.76-.75-3.76-3.72,0-12.41,0-24.82,0-37.24,0-6.63,2.81-11.65,8.52-15.05,1.12-.66,2.27-1.29,3.29-2.09,1.55-1.21,1.45-2.42-.13-3.52-4.84-3.37-5.29-10.59-.61-14.09,1.86-1.39,2.21-2.79,1.81-4.85ZM273.64,633.41c.03-.34.07-.55.07-.76,0-8.83.27-17.68-.09-26.49-.61-14.94-7.12-26.96-19.67-35.12-12.24-7.96-24.89-15.31-37.38-22.9-.56-.34-1.31-.49-1.98-.49-5.58-.04-11.16-.06-16.74.02-.89.01-1.94.33-2.65.87-6.47,4.88-9.87,11.42-9.9,19.52-.07,21.35-.02,42.7-.02,64.05,0,.42.04.83.07,1.31h88.27ZM185.42,638.75v31.02h88.22v-31.02h-88.22ZM179.94,643.82c.07-.23.13-.33.13-.43.01-.43.02-.87.02-1.3-.18-11.54-3.89-21.81-10.88-30.99-2.03-2.67-4.17-4.23-7.68-3.7-2.01.31-4.11.05-6.16.06-.41,0-.82.08-1.28.12,0,1.15.03,2.18,0,3.2-.06,2.04-.94,3.63-2.65,4.76-3.49,2.31-3.45,4.88.07,7.27,1.75,1.18,2.64,2.85,2.57,4.96-.11,2.96-1.43,5.29-3.91,6.92-1.26.83-2.61,1.53-3.88,2.36-2.45,1.59-4.08,3.79-4.8,6.75h38.46ZM141.2,649.16v23.22h38.81v-23.22h-38.81ZM185.33,675.17c.03.49.02.92.1,1.32.76,3.93,3.91,6.41,8.19,6.41,23.93,0,47.87,0,71.8,0,.38,0,.76,0,1.14-.02,4.03-.33,7.26-3.85,7.02-7.71h-88.24ZM177.15,580.53c-5.42-4.07-10.51-7.93-15.65-11.72-.46-.34-1.22-.37-1.84-.37-9.1-.02-18.2-.02-27.3-.01-.52,0-1.05.05-1.55.07v5.13c4.02,0,7.91.09,11.81-.04,2.05-.06,3.18.73,3.94,2.6,1.98,4.86,4.08,9.67,6.18,14.48.2.46.71,1.11,1.09,1.12,3.5.09,7.01.05,10.66.05,0-1.55,0-2.95,0-4.34,0-2.27.4-2.83,2.53-3.55,3.26-1.11,6.52-2.2,10.12-3.41ZM180.04,677.83h-38.86v4.98h38.86v-4.98ZM179.94,618.21v-33.1c-3.26,1.09-6.34,2.09-9.39,3.17-.37.13-.74.7-.81,1.12-.13.77-.04,1.57-.04,2.44.65,0,1.08,0,1.51,0,2.97.02,3.69.76,3.69,3.78,0,2.6-.07,5.2.02,7.8.06,1.73-.2,3.21-1.76,3.94,2.32,3.71,4.58,7.32,6.77,10.83ZM198.38,542.3h15.4v-10.21h-15.4v10.21ZM169.61,597.15h-20.6v5.02h20.6v-5.02ZM128.3,590.71c5.12-1.56,9.9-7.53,9.7-11.77h-4.87c-.57,4.29-2.11,8.11-4.83,11.77Z"/>
      <path class="cls-8" d="M268.52,616.49c0,2.87.01,5.74,0,8.61-.01,2.22-.94,3.15-3.17,3.16-3.19.02-6.39,0-9.58,0-4.26,0-7.95-1.47-10.97-4.47-5.34-5.3-10.67-10.62-15.97-15.97-3.04-3.07-4.52-6.81-4.51-11.13,0-5.74,0-11.48,0-17.23,0-4.25,1.77-7.59,5.49-9.66,3.78-2.1,7.58-1.81,11.23.51,3.24,2.06,6.55,4.03,9.7,6.23,11.39,7.95,17.27,18.94,17.77,32.8.09,2.38.01,4.77.01,7.15h.01ZM263.31,623.05c0-4.63.09-9.12-.02-13.59-.25-10.2-4-18.97-11.77-25.59-4.13-3.52-8.9-6.3-13.49-9.24-3.98-2.54-8.48.07-8.51,4.83-.03,5.85-.02,11.69,0,17.54,0,2.66.89,5.02,2.76,6.91,5.44,5.5,10.92,10.97,16.41,16.43,1.72,1.7,3.85,2.63,6.26,2.71,2.7.09,5.41.02,8.36.02Z"/>
      <path class="cls-8" d="M193.1,577.89c.11-4.11,1.19-8.85,4.47-12.85,4.76-5.82,12.12-5.92,16.92-.15,3.97,4.78,4.99,10.46,4.47,16.49-.31,3.67-1.39,7.11-3.49,10.18-4.98,7.29-13.71,7.3-18.73.04-2.33-3.37-3.65-7.98-3.64-13.7ZM213.93,578.85c-.1-3.64-.8-7.11-2.99-10.11-2.82-3.86-6.81-3.86-9.66-.02-3.95,5.31-3.96,14.91-.01,20.22,2.86,3.84,6.83,3.87,9.66.01,2.2-3,2.9-6.47,3-10.1Z"/>
    </g>
    <g>
      <path class="cls-8" d="M74.27,609.96c8.07-.78,16.07-1.36,24.02-2.41,2.77-.36,5.54-1.59,8.03-2.93,1.85-1,3.35-2.73,4.84-4.3.93-.98,1.77-1.39,3.06-.92,10.21,3.72,17.55,13.96,17.72,24.8.04,2.54.04,5.07,0,7.61-.01.76.19,1.2.9,1.6,4.04,2.28,6.11,5.8,6.12,10.42.04,10.78.04,21.55,0,32.33-.02,6.93-5.1,11.98-12.05,11.98-28.63.02-57.26.01-85.89,0-7.04,0-12.08-5.06-12.11-12.07-.02-3.36.11-6.73-.02-10.09-.37-9.35-.76-18.7-1.28-28.04-.55-9.83-1.27-19.65-1.92-29.48-.74-11.33-1.49-22.67-2.23-34-.52-7.93-1.05-15.86-1.54-23.79-.13-2.07.76-2.99,2.82-2.99,16.83,0,33.65,0,50.48,0,2.06,0,2.97.92,2.84,2.98-.61,9.54-1.25,19.07-1.87,28.6-.64,9.88-1.28,19.75-1.92,29.63-.02.38,0,.76,0,1.09ZM27.35,561.74c2.04,31.28,4.07,62.42,6.1,93.53h21.23c0-3.82-.01-7.56,0-11.31.02-4.68,2.04-8.25,6.12-10.57.7-.4.93-.82.91-1.59-.05-2.34.02-4.68-.02-7.02-.1-5.37,2.32-9.31,6.74-12.18.47-.3.88-1.02.92-1.58.33-3.88.56-7.78.82-11.67.65-9.87,1.3-19.75,1.94-29.62.17-2.65.31-5.29.47-7.99H27.35ZM134.19,674.02v-27.92H59.44v27.92h74.75ZM126.97,622.51c.05-.15.11-.24.1-.32-.9-8.13-5.54-13.59-12.46-17.41-.25-.14-.84.13-1.17.35-2.37,1.58-4.57,3.52-7.11,4.75-5.57,2.69-11.63,3.39-17.76,3.64-3.31.13-6.63.21-9.91.59-3.62.42-7.07,1.47-9.79,4.11-1.19,1.15-2.04,2.52-2.24,4.28h60.34ZM133.64,641.23c.02-.17.07-.27.04-.35-.06-.18-.13-.37-.23-.53-1.51-2.62-3.81-3.74-6.79-3.74-19.89.02-39.79,0-59.68.01-.39,0-.78,0-1.17.03-2.78.24-5.26,2.18-5.8,4.58h73.63ZM133.64,678.84H60.02c-.02.16-.07.27-.05.35.06.18.13.37.23.53,1.51,2.62,3.81,3.74,6.79,3.74,19.89-.02,39.79,0,59.68-.01.39,0,.78,0,1.17-.03,2.18-.11,5.36-1.95,5.8-4.58ZM127.2,627.36h-60.7v4.51h60.7v-4.51ZM27.03,556.92h45.94c.08-1.54.15-2.97.23-4.46H26.77c.09,1.57.18,3.02.26,4.46ZM40.63,674.03c0-.79,0-1.42,0-2.05.05-4.25,3.02-7.22,7.29-7.25,2.22-.02,4.43,0,6.67,0v-4.59h-20.89v13.9h6.93ZM54.76,678.84h-20.53c.68,2.66,3.31,4.57,6.42,4.59,5.17.04,10.34.01,15.51,0,.21,0,.41-.07.57-.1-.68-1.56-1.32-3.02-1.97-4.5ZM45.32,673.99h9.36c0-.58,0-1.05,0-1.53-.01-2.27-.79-3.04-3.08-3.05-1.26,0-2.53-.03-3.79,0-1.56.05-2.42.91-2.49,2.45-.03.67,0,1.35,0,2.13Z"/>
      <path class="cls-8" d="M49.99,585.12c-4.49,0-8.98,0-13.46,0-2.1,0-2.91-.83-2.92-2.93-.01-4.29-.01-8.58,0-12.88,0-2.1.82-2.91,2.93-2.92,8.98,0,17.95,0,26.93,0,2.1,0,2.91.82,2.92,2.93.01,4.29.01,8.58,0,12.88,0,2.1-.83,2.91-2.93,2.92-4.49.01-8.98,0-13.46,0ZM38.39,571.13v9.19h23.23v-9.19h-23.23Z"/>
      <path class="cls-8" d="M50,594.48c-2.93,0-5.85,0-8.78,0-1.85,0-2.92-.88-2.92-2.34,0-1.46,1.07-2.34,2.91-2.34,5.85,0,11.71,0,17.56,0,1.85,0,2.92.88,2.92,2.34,0,1.46-1.07,2.33-2.92,2.34-2.93.01-5.85,0-8.78,0Z"/>
      <path class="cls-8" d="M97.99,669.43c-5.3-.06-9.37-.52-13.19-2.12-1.51-.63-3-1.46-4.25-2.5-3.29-2.72-3.23-6.81,0-9.59,2.12-1.83,4.65-2.82,7.33-3.46,7.04-1.67,14.02-1.58,20.85.96,1.44.53,2.85,1.31,4.06,2.26,3.72,2.9,3.68,7.22,0,10.16-2.59,2.07-5.67,3.03-8.84,3.6-2.34.42-4.74.55-5.95.69ZM96.89,664.73c3.74-.07,7.46-.48,10.93-2.07,1.26-.57,3.1-1.16,2.87-2.67-.15-.99-1.7-2.09-2.86-2.55-7.32-2.9-14.73-2.92-22.05.02-1.15.46-1.99,1.68-2.98,2.55.98.88,1.82,2.02,2.95,2.58,3.47,1.71,7.27,2.08,11.13,2.14Z"/>
    </g>
  </g>

  <g>
    <g>
      <path class="cls-8" d="M568.53,183.94c0,19.12,0,38.25,0,57.37,0,6.36-3.77,10.14-10.13,10.14-29.62,0-59.23,0-88.85,0-6.36,0-10.14-3.78-10.14-10.13,0-38.25,0-76.49,0-114.74,0-6.35,3.79-10.14,10.13-10.14,29.62,0,59.23,0,88.85,0,6.35,0,10.13,3.78,10.13,10.13,0,19.12,0,38.25,0,57.37ZM564.03,183.97c0-19.17,0-38.34,0-57.51,0-3.74-1.78-5.53-5.5-5.53-29.71,0-59.42,0-89.13,0-3.71,0-5.49,1.8-5.49,5.54,0,38.29,0,76.58,0,114.88,0,3.83,1.76,5.6,5.57,5.6,29.66,0,59.32,0,88.99,0,3.8,0,5.56-1.78,5.56-5.61,0-19.12,0-38.24,0-57.37Z"/>
      <path class="cls-12" d="M564.03,183.97c0,19.12,0,38.24,0,57.37,0,3.83-1.76,5.61-5.56,5.61-29.66,0-59.32,0-88.99,0-3.81,0-5.57-1.77-5.57-5.6,0-38.29,0-76.58,0-114.88,0-3.74,1.78-5.54,5.49-5.54,29.71,0,59.42,0,89.13,0,3.72,0,5.5,1.79,5.5,5.53,0,19.17,0,38.34,0,57.51ZM516.23,183.93c0-16.87,0-33.74,0-50.61,0-.47.05-.95-.04-1.4-.22-1.21-.99-1.94-2.22-1.93-1.23,0-1.99.74-2.2,1.96-.07.41-.03.84-.03,1.26,0,33.83,0,67.67,0,101.5,0,.42-.04.85.04,1.26.23,1.21.99,1.94,2.23,1.93,1.23,0,1.99-.74,2.2-1.96.08-.46.03-.93.03-1.4,0-16.87,0-33.74,0-50.61ZM488.99,129.95c-2.9,0-5.8-.02-8.7,0-4.95.04-8.76,3.76-8.76,8.52,0,4.76,3.79,8.53,8.73,8.57,5.8.05,11.61.06,17.41,0,4.86-.05,8.61-3.82,8.63-8.53.03-4.74-3.81-8.51-8.74-8.56-2.85-.03-5.71,0-8.56,0ZM488.86,237.93c2.85,0,5.71.02,8.56,0,5.04-.03,8.9-3.77,8.87-8.57-.03-4.77-3.83-8.5-8.78-8.53-5.76-.04-11.51-.04-17.27,0-4.93.04-8.73,3.82-8.72,8.58,0,4.76,3.81,8.47,8.77,8.52,2.85.03,5.71,0,8.56,0ZM488.89,152.7c-2.9,0-5.81-.02-8.71,0-4.76.04-8.5,3.6-8.65,8.2-.15,4.69,3.35,8.63,8.19,8.76,6.13.17,12.28.17,18.41,0,4.78-.14,8.32-4.08,8.16-8.65-.16-4.72-3.86-8.28-8.68-8.32-2.9-.03-5.81,0-8.71,0ZM488.92,215.18c2.86,0,5.72.02,8.57,0,4.93-.03,8.66-3.59,8.79-8.35.13-4.63-3.49-8.52-8.34-8.64-6.04-.14-12.09-.14-18.13,0-4.84.12-8.39,3.99-8.29,8.67.1,4.67,3.84,8.27,8.68,8.31,2.9.03,5.81,0,8.71,0ZM539.09,129.95c-2.85,0-5.71-.01-8.56,0-5.03.03-8.9,3.79-8.87,8.57.04,4.77,3.83,8.49,8.79,8.53,5.76.04,11.51.05,17.27,0,4.94-.04,8.72-3.82,8.71-8.58-.01-4.77-3.81-8.47-8.77-8.51-2.85-.02-5.71,0-8.56,0ZM539.15,237.93c2.81,0,5.62.02,8.42,0,5-.04,8.81-3.67,8.85-8.43.05-4.83-3.76-8.63-8.77-8.67-5.76-.04-11.51-.04-17.27,0-4.93.04-8.75,3.83-8.73,8.58.02,4.76,3.83,8.47,8.78,8.51,2.9.03,5.8,0,8.7,0ZM538.98,215.18c2.95,0,5.9.03,8.85,0,4.75-.05,8.47-3.65,8.59-8.26.12-4.64-3.35-8.56-8.1-8.7-6.18-.18-12.37-.18-18.55,0-4.69.13-8.2,4.03-8.11,8.56.09,4.7,3.81,8.35,8.6,8.4,2.9.03,5.81,0,8.71,0ZM539.03,152.7c-2.9,0-5.81-.02-8.71,0-4.81.05-8.52,3.65-8.65,8.35-.12,4.52,3.37,8.46,8.07,8.6,6.22.18,12.46.19,18.69,0,4.74-.15,8.17-4.13,8-8.78-.16-4.54-3.87-8.11-8.54-8.16-2.95-.03-5.9,0-8.85,0ZM488.86,192.43h0c2.9,0,5.82.14,8.71-.04,1.54-.1,3.18-.48,4.53-1.2,3.34-1.79,4.86-5.74,3.91-9.4-.93-3.6-4.12-6.27-7.86-6.31-6.18-.08-12.37-.02-18.55-.01-.51,0-1.03.08-1.53.2-4.16,1.03-6.96,4.95-6.52,9.11.46,4.31,3.92,7.54,8.31,7.64,3,.07,6,.01,9,.01ZM539.17,175.45s0,0,0,0c-3.14,0-6.28-.04-9.42.01-2.54.05-4.62,1.16-6.17,3.14-2.12,2.7-2.54,5.73-1.11,8.84,1.43,3.11,3.95,4.89,7.4,4.94,6.14.09,12.27.03,18.41.02.47,0,.94-.04,1.39-.14,4.23-.92,7.12-4.84,6.73-9.1-.39-4.29-3.89-7.61-8.24-7.72-3-.07-6-.01-8.99-.01Z"/>
      <path class="cls-8" d="M516.23,183.93c0,16.87,0,33.74,0,50.61,0,.47.05.95-.03,1.4-.21,1.22-.97,1.95-2.2,1.96-1.23,0-1.99-.72-2.23-1.93-.08-.41-.04-.84-.04-1.26,0-33.83,0-67.67,0-101.5,0-.42-.04-.85.03-1.26.22-1.21.97-1.95,2.2-1.96,1.24,0,2,.72,2.22,1.93.08.45.04.93.04,1.4,0,16.87,0,33.74,0,50.61Z"/>
      <path class="cls-8" d="M488.99,129.95c2.85,0,5.71-.02,8.56,0,4.92.05,8.76,3.82,8.74,8.56-.03,4.71-3.77,8.48-8.63,8.53-5.8.06-11.61.05-17.41,0-4.94-.04-8.73-3.81-8.73-8.57,0-4.76,3.81-8.48,8.76-8.52,2.9-.02,5.8,0,8.7,0ZM491.25,142.56c.49,0,.9,0,1.31,0,1.87,0,3.74.09,5.6-.06,2.08-.17,3.6-1.96,3.62-3.98.02-1.91-1.35-3.78-3.3-3.94-2.39-.2-4.81-.05-7.23-.05v8.03Z"/>
      <path class="cls-8" d="M488.86,237.93c-2.85,0-5.71.02-8.56,0-4.96-.05-8.76-3.75-8.77-8.52,0-4.76,3.79-8.54,8.72-8.58,5.76-.04,11.51-.04,17.27,0,4.95.03,8.75,3.76,8.78,8.53.03,4.79-3.83,8.53-8.87,8.57-2.85.02-5.71,0-8.56,0ZM491.23,233.37c2.43,0,4.81.14,7.16-.04,1.96-.15,3.35-1.94,3.38-3.87.03-1.97-1.37-3.83-3.4-4-2.35-.19-4.72-.05-7.15-.05v7.96Z"/>
      <path class="cls-8" d="M488.89,152.7c2.9,0,5.81-.02,8.71,0,4.83.04,8.53,3.6,8.68,8.32.15,4.57-3.39,8.51-8.16,8.65-6.13.17-12.28.17-18.41,0-4.84-.14-8.34-4.07-8.19-8.76.15-4.6,3.88-8.16,8.65-8.2,2.9-.03,5.81,0,8.71,0ZM491.22,165.09c2.56,0,5.09.16,7.58-.05,1.76-.15,3.03-2.09,2.98-3.9-.05-1.89-1.42-3.69-3.27-3.83-2.4-.17-4.82-.04-7.28-.04v7.83Z"/>
      <path class="cls-8" d="M488.92,215.18c-2.9,0-5.81.02-8.71,0-4.84-.04-8.59-3.64-8.68-8.31-.1-4.68,3.46-8.55,8.29-8.67,6.04-.15,12.09-.15,18.13,0,4.85.11,8.47,4.01,8.34,8.64-.13,4.76-3.86,8.32-8.79,8.35-2.86.02-5.72,0-8.57,0ZM491.24,210.64c2.42,0,4.76.1,7.08-.03,1.93-.11,3.38-1.86,3.46-3.81.08-1.92-1.3-3.85-3.21-4-2.41-.18-4.84-.04-7.33-.04v7.89Z"/>
      <path class="cls-8" d="M539.09,129.95c2.85,0,5.71-.02,8.56,0,4.96.04,8.76,3.74,8.77,8.51.01,4.76-3.78,8.54-8.71,8.58-5.76.05-11.51.04-17.27,0-4.95-.03-8.75-3.76-8.79-8.53-.04-4.78,3.84-8.54,8.87-8.57,2.85-.02,5.71,0,8.56,0ZM541.37,142.55c2.33,0,4.48.07,6.62-.02,2.19-.08,3.81-1.74,3.93-3.83.11-2.02-1.32-3.98-3.39-4.14-2.35-.19-4.73-.04-7.16-.04v8.04Z"/>
      <path class="cls-8" d="M539.15,237.93c-2.9,0-5.8.02-8.7,0-4.95-.04-8.76-3.75-8.78-8.51-.02-4.75,3.8-8.54,8.73-8.58,5.76-.04,11.51-.04,17.27,0,5.01.03,8.82,3.84,8.77,8.67-.05,4.76-3.85,8.39-8.85,8.43-2.81.02-5.62,0-8.42,0ZM541.36,233.43c2.08,0,4,0,5.91,0,.28,0,.56,0,.84-.02,2.12-.19,3.69-1.77,3.8-3.81.11-2.03-1.3-3.97-3.39-4.15-2.35-.2-4.73-.05-7.17-.05v8.03Z"/>
      <path class="cls-8" d="M538.98,215.18c-2.9,0-5.81.03-8.71,0-4.79-.05-8.51-3.7-8.6-8.4-.09-4.53,3.42-8.43,8.11-8.56,6.18-.18,12.37-.18,18.55,0,4.75.14,8.22,4.06,8.1,8.7-.11,4.61-3.83,8.21-8.59,8.26-2.95.03-5.9,0-8.85,0ZM541.33,210.65c2.46,0,4.8.1,7.12-.03,1.82-.1,3.25-1.69,3.45-3.52.2-1.78-.9-3.93-2.64-4.12-2.6-.29-5.26-.08-7.93-.08v7.75Z"/>
      <path class="cls-8" d="M539.03,152.7c2.95,0,5.9-.03,8.85,0,4.67.05,8.38,3.62,8.54,8.16.16,4.65-3.27,8.63-8,8.78-6.22.19-12.46.19-18.69,0-4.69-.14-8.19-4.08-8.07-8.6.13-4.71,3.84-8.31,8.65-8.35,2.9-.03,5.81,0,8.71,0ZM541.35,157.22v7.86c2.57,0,5.1.17,7.59-.06,1.87-.17,3.16-2.28,2.97-4.18-.19-1.94-1.73-3.53-3.68-3.61-2.24-.09-4.49-.02-6.88-.02Z"/>
      <path class="cls-8" d="M488.86,192.43c-3,0-6,.06-9-.01-4.39-.1-7.85-3.34-8.31-7.64-.44-4.16,2.36-8.09,6.52-9.11.5-.12,1.02-.2,1.53-.2,6.18-.01,12.37-.07,18.55.01,3.73.05,6.93,2.72,7.86,6.31.95,3.66-.57,7.61-3.91,9.4-1.34.72-2.99,1.1-4.53,1.2-2.89.18-5.81.05-8.71.05h0ZM491.24,187.87c2.49,0,4.91.13,7.31-.04,1.83-.13,3.2-1.97,3.22-3.86.02-1.82-1.26-3.72-3.02-3.87-2.48-.21-4.99-.05-7.51-.05v7.82Z"/>
      <path class="cls-8" d="M539.17,175.45c3,0,6-.06,8.99.01,4.35.11,7.85,3.43,8.24,7.72.39,4.25-2.5,8.17-6.73,9.1-.45.1-.93.14-1.39.14-6.14,0-12.28.07-18.41-.02-3.45-.05-5.97-1.84-7.4-4.94-1.43-3.12-1.01-6.14,1.11-8.84,1.55-1.98,3.64-3.1,6.17-3.14,3.14-.06,6.28-.01,9.42-.01,0,0,0,0,0,0ZM541.37,187.9c2.42,0,4.71.08,6.99-.02,1.99-.09,3.51-1.84,3.57-3.84.05-1.91-1.36-3.86-3.23-3.99-2.4-.17-4.83-.04-7.32-.04v7.9Z"/>
      <path class="cls-12" d="M491.25,142.56v-8.03c2.42,0,4.84-.15,7.23.05,1.95.16,3.32,2.03,3.3,3.94-.02,2.02-1.54,3.81-3.62,3.98-1.86.15-3.73.05-5.6.06-.41,0-.82,0-1.31,0Z"/>
      <path class="cls-12" d="M491.23,233.37v-7.96c2.42,0,4.8-.15,7.15.05,2.02.17,3.43,2.04,3.4,4-.03,1.93-1.42,3.72-3.38,3.87-2.35.18-4.73.04-7.16.04Z"/>
      <path class="cls-12" d="M491.22,165.09v-7.83c2.46,0,4.88-.13,7.28.04,1.86.14,3.22,1.94,3.27,3.83.05,1.81-1.22,3.75-2.98,3.9-2.49.22-5.01.05-7.58.05Z"/>
      <path class="cls-12" d="M491.24,210.64v-7.89c2.49,0,4.92-.14,7.33.04,1.91.15,3.29,2.08,3.21,4-.08,1.95-1.53,3.7-3.46,3.81-2.32.14-4.65.03-7.08.03Z"/>
      <path class="cls-12" d="M541.37,142.55v-8.04c2.43,0,4.81-.15,7.16.04,2.07.17,3.5,2.12,3.39,4.14-.12,2.09-1.74,3.75-3.93,3.83-2.15.08-4.3.02-6.62.02Z"/>
      <path class="cls-12" d="M541.36,233.43v-8.03c2.44,0,4.82-.16,7.17.05,2.08.18,3.49,2.12,3.39,4.15-.11,2.04-1.68,3.62-3.8,3.81-.28.02-.56.02-.84.02-1.91,0-3.83,0-5.91,0Z"/>
      <path class="cls-12" d="M541.33,210.65v-7.75c2.67,0,5.33-.22,7.93.08,1.74.2,2.85,2.34,2.64,4.12-.21,1.83-1.63,3.43-3.45,3.52-2.32.13-4.66.03-7.12.03Z"/>
      <path class="cls-12" d="M541.35,157.22c2.39,0,4.64-.07,6.88.02,1.96.07,3.49,1.67,3.68,3.61.19,1.9-1.1,4-2.97,4.18-2.49.23-5.02.06-7.59.06v-7.86Z"/>
      <path class="cls-12" d="M491.24,187.87v-7.82c2.52,0,5.03-.16,7.51.05,1.77.15,3.04,2.06,3.02,3.87-.02,1.89-1.39,3.73-3.22,3.86-2.4.17-4.83.04-7.31.04Z"/>
      <path class="cls-12" d="M541.37,187.9v-7.9c2.49,0,4.92-.13,7.32.04,1.87.13,3.28,2.08,3.23,3.99-.05,2-1.58,3.75-3.57,3.84-2.28.11-4.57.02-6.99.02Z"/>
    </g>
    <g>
      <g>
        <path class="cls-12" d="M496.64,225.84s12.99-28.56-21.75-26.81l-53.24,33.14s-2.54,29.32,22.01,26.91l50.7-1.1s23.8-12.08,2.28-32.15Z"/>
        <path class="cls-8" d="M499.05,225.62c-.96-.75-1.1-1.29-.65-2.42,4.04-10.01-.56-21.13-10.5-25.29-6.06-2.54-12.01-2.06-17.71,1.22-2.03,1.16-4.06,2.34-6.38,3.68v-2.17c0-13.41-.07-26.82.02-40.23.07-9.72-3.38-17.78-10.97-23.88-3.47-2.8-7.22-5.25-10.85-7.85-1.08-.77-2.2-1.5-3.35-2.28,2.46-1.79,3.07-2.97,3.08-5.83,0-3.47.01-6.94,0-10.41-.02-3.93-2.15-6.07-6.04-6.07-12.94,0-25.87,0-38.81,0-3.93,0-6.01,2.08-6.04,6.04-.02,3.26.06,6.52-.03,9.78-.07,2.67.43,5.01,3.13,6.45-.64.45-1.1.78-1.57,1.1-3.17,2.16-6.36,4.29-9.5,6.49-9.67,6.77-14.36,15.85-14.19,27.88.33,23.5.09,47.01.11,70.52,0,1.57.02,3.17.31,4.71,1.9,10.12,10,16.9,20.34,16.97,10.41.07,20.83.03,31.24,0,1.01,0,1.74.28,2.48,1,3.79,3.68,8.39,5.54,13.66,5.55,16.72.03,33.45.03,50.17,0,8.44-.02,15.84-5.32,18.55-13.17,2.73-7.91.19-16.54-6.5-21.78ZM493.96,211.4c-5.72-3.2-11.23-6.27-16.93-9.46,6.72-2.1,15.06,2.55,16.93,9.46ZM467.37,206.62q3.61-2.28,7.3-.22c6.1,3.4,12.16,6.88,18.31,10.18,1.53.82,1.95,1.67,1.29,3.19-.24.56-.39,1.17-.65,1.97-8.99-5.03-17.74-9.92-26.5-14.82.14-.17.18-.26.25-.31ZM465.19,211.64c8.06,4.5,16.12,9.01,24.17,13.51.41.23.81.47,1.49.87-1.15.86-2.14,1.66-3.2,2.35-.26.17-.82.09-1.13-.08-9.44-5.25-18.87-10.53-28.3-15.81-.12-.07-.2-.22-.3-.34.14-.12.25-.23.38-.31q3.38-2.13,6.88-.19ZM460.87,224.55c-1.8-.95-3.13-2.17-4-4-.64-1.34-1.47-2.6-1.96-4.13,8.98,5.02,17.97,10.05,27.12,15.16q-3.91,2.57-7.67.46c-4.49-2.51-8.94-5.09-13.49-7.49ZM472.82,236.98c-1.71,1-3.19,1.85-4.82,2.8-1.49-2.57-2.94-5.08-4.4-7.6.06-.08.12-.17.19-.25,2.95,1.65,5.9,3.3,9.03,5.05ZM396.02,109.22h40.52v12.47h-40.52v-12.47ZM381.5,141.73c4.53-3.81,9.54-7.04,14.34-10.52.6-.43,1.3-.74,1.82-1.24,2.94-2.8,6.43-3.37,10.39-3.23,6.98.25,13.98.06,20.98.08.6,0,1.33.02,1.79.34,5.94,4.06,11.94,8.05,17.73,12.32,4.72,3.48,8.22,7.98,9.47,13.89.38,1.78.52,3.6.78,5.51h-84.89c-.01-6.98,2.43-12.83,7.58-17.16ZM418.8,248.84c-.49.06-.87.14-1.25.14-9.35,0-18.7.06-28.05-.01-7.77-.06-13.84-4.96-15.33-12.37-.38-1.88-.3-3.85-.44-5.94h45.85c-.77,2.96-1.78,5.93-2.28,8.98-.5,3.09.27,6.15,1.5,9.2ZM375.92,225.55h-1.99v-61.45h84.83v1.68c0,12.77-.02,25.55.03,38.32,0,1.22-.38,1.87-1.42,2.47-9.94,5.68-19.9,11.33-29.73,17.2-2.24,1.33-4.38,1.83-6.92,1.82-14.93-.08-29.86-.04-44.8-.04ZM459.33,255.46h-8.4c2.96-1.71,5.56-3.2,8.4-4.85v4.85ZM457.92,245.59c-4.59,2.65-9.16,5.36-13.79,7.95-7.18,4-15.92,1.68-19.91-5.2-4.07-7.01-1.73-15.73,5.43-19.95,6.38-3.76,12.81-7.42,19.43-11.24,4.83,8.36,9.63,16.66,14.53,25.15-1.98,1.15-3.83,2.22-5.69,3.3ZM488.33,255.4c-7.86.43-15.76.09-23.86.09,0-2.46-.07-4.77.05-7.07.03-.51.64-1.14,1.15-1.43,7.67-4.47,15.39-8.86,23.04-13.37,2.2-1.3,4.22-2.89,6.58-4.53,2.54,1.66,4.46,4.18,5.52,7.35,2.97,8.86-3.13,18.45-12.48,18.96Z"/>
      </g>
      <path class="cls-8" d="M424.91,203.37c0,2.96,0,5.69,0,8.41-.01,2.79-.76,3.53-3.58,3.54-3.42,0-6.84.01-10.25,0-2.63-.01-3.41-.78-3.41-3.36,0-2.78,0-5.55,0-8.59-2.41,0-4.7,0-6.99,0-4.77,0-4.99-.22-4.99-4.96,0-1.89.02-3.79,0-5.68-.08-6.94-.29-6.73,6.74-6.65,1.67.02,3.35,0,5.24,0,0-2.79,0-5.45,0-8.12,0-3.27.58-3.86,3.84-3.86,3.42,0,6.84,0,10.25,0,2.28,0,3.13.84,3.15,3.15.03,2.88,0,5.76,0,8.82,3,0,5.82,0,8.64,0,2.52,0,3.31.78,3.32,3.28.02,3.52.01,7.05,0,10.57,0,2.66-.8,3.42-3.53,3.43-2.73.01-5.45,0-8.44,0ZM419.86,210.19c0-.7,0-1.26,0-1.83,0-2.31-.02-4.63,0-6.94.03-2.22.86-3.05,3.05-3.08,1.16-.02,2.31,0,3.47,0,1.77,0,3.53,0,5.44,0v-6.94c-.29-.16-.34-.2-.38-.2-2.89-.02-5.78-.01-8.67-.06-1.9-.03-2.8-.91-2.9-2.78-.04-.84-.01-1.68-.01-2.52,0-2.18,0-4.36,0-6.53h-7.15c0,2.44,0,4.75,0,7.06,0,4.42-.36,4.79-4.72,4.79-2.39,0-4.79,0-7.18,0v7.19c2.89,0,5.72,0,8.54,0,2.56.01,3.35.82,3.36,3.43,0,2.78,0,5.56,0,8.43h7.15Z"/>
    </g>
  </g>

  <g>
    <path class="cls-8" d="M449.83,517.2c1.81.74,2.11,2.23,2.11,3.98-.03,14.14-.02,28.28-.01,42.42,0,3.03.33,3.51,2.97,4.45,8.75,3.13,13.67,9.89,13.69,19.21.05,30.88.02,61.76.01,92.64,0,2.76-.99,3.74-3.71,3.74-16.04,0-32.07,0-48.11,0-2.74,0-3.68-.96-3.68-3.74,0-30.88-.01-61.76,0-92.64,0-9.18,4.9-16.05,13.53-19.14,2.79-1,3.08-1.41,3.08-4.36,0-14.19.02-28.39-.02-42.58,0-1.71.43-3.06,1.93-3.97h18.2ZM462.9,603.1c.06-.32.13-.53.13-.73,0-5.2.13-10.4-.02-15.6-.2-6.77-3.62-11.26-9.96-13.5-4.9-1.73-6.68-4.24-6.68-9.47,0-9.32,0-18.63,0-27.95,0-.63,0-1.25,0-1.89h-11.1c0,.73,0,1.32,0,1.91,0,9.37,0,18.74-.01,28.11,0,1.02-.02,2.07-.26,3.06-.85,3.54-3.38,5.35-6.69,6.37-4.13,1.28-6.97,4.04-8.62,8-.39.94-.78,1.97-.79,2.96-.07,6.21-.04,12.42-.04,18.74h44.04ZM462.94,647.49v-38.61h-44.21v38.61h44.21ZM418.69,677.98h44.25v-24.76h-44.25v24.76ZM446.32,522.84h-10.93v5.31h10.93v-5.31Z"/>
    <path class="cls-8" d="M579.53,681.68c-.87,1.54-2.2,1.98-3.93,1.98-15.87-.04-31.73-.02-47.6-.03-3.07,0-3.97-.89-3.97-3.97,0-34.98-.04-69.97.02-104.95.02-12.49,4.95-22.66,15.1-30.12,1.12-.82,1.59-1.72,1.58-3.11-.06-6.82,0-13.65-.04-20.47,0-1.71.39-3.1,2.11-3.82h18.2c1.5.91,1.95,2.26,1.93,3.97-.05,6.76.02,13.52-.05,20.28-.02,1.46.45,2.38,1.63,3.22,6.74,4.83,11.27,11.26,13.54,19.22.68,2.37.99,4.85,1.48,7.27v110.52ZM546.26,533.9c0,2.53-.09,4.92.02,7.29.15,3.37-1.1,5.88-3.87,7.89-8.74,6.35-12.83,15.11-12.83,25.82-.02,33.8,0,67.6,0,101.4,0,.57.05,1.15.07,1.72h44.33c0-.77,0-1.46,0-2.15,0-33.53-.02-67.06,0-100.58,0-10.98-4.08-19.89-13.05-26.38-2.55-1.85-3.76-4.18-3.62-7.33.11-2.52.02-5.06.02-7.67h-11.1ZM546.31,528.17h10.92v-5.3h-10.92v5.3Z"/>
    <path class="cls-8" d="M505.42,517.2c1.59.83,2.01,2.17,2,3.9-.05,11.7,0,23.4-.03,35.11-.02,8.15,1.86,15.8,6.21,22.71,5.5,8.75,7.81,18.26,7.76,28.56-.12,23.95-.04,47.89-.04,71.84,0,3.55-.76,4.32-4.27,4.32-13.92,0-27.85,0-41.77,0-3.05,0-3.94-.9-3.94-4,0-24.7,0-49.41,0-74.11,0-9.26,2.31-17.89,7.24-25.75,4.62-7.37,6.74-15.38,6.69-24.05-.07-11.54,0-23.08-.04-34.62,0-1.73.41-3.07,2-3.9h18.2ZM490.78,533.89c0,7.43-.06,14.69.01,21.94.09,9.68-2.35,18.61-7.48,26.82-4.39,7.02-6.44,14.71-6.44,22.97.01,23.56,0,47.13,0,70.69v1.69h38.88v-1.84c0-23.4-.02-46.8.01-70.2.01-8.5-2.08-16.36-6.6-23.58-4.99-7.96-7.35-16.67-7.32-26.05.03-6.88,0-13.76,0-20.64,0-.58,0-1.15,0-1.79h-11.07ZM490.89,522.82v5.33h10.88v-5.33h-10.88Z"/>
    <path class="cls-8" d="M568.46,628.04c0,11.64,0,23.29,0,34.93,0,3.15-.9,4.05-4.07,4.05-8.39,0-16.79,0-25.18,0-3.18,0-4.06-.87-4.06-4.05,0-23.18,0-46.36,0-69.54,0-3.32.79-4.09,4.14-4.09,8.34,0,16.68,0,25.02,0,3.33,0,4.15.81,4.15,4.09,0,11.54,0,23.07,0,34.61ZM540.83,594.94v66.4h21.98v-66.4h-21.98Z"/>
    <path class="cls-8" d="M496.39,614.34c7.61.06,13.9,6.4,13.79,13.91-.11,7.62-6.42,13.85-13.94,13.77-7.59-.08-13.9-6.47-13.78-13.93.13-7.67,6.35-13.8,13.94-13.75ZM496.25,619.88c-4.55.03-8.26,3.77-8.24,8.31.02,4.54,3.77,8.28,8.3,8.29,4.58,0,8.41-3.87,8.31-8.43-.1-4.6-3.79-8.2-8.37-8.17Z"/>
  </g> -->

  <text class="cls-10" transform="translate(21.91 298.9)"><tspan x="0" y="0" xml:space="preserve"> Food &amp; Beverage</tspan></text>
  <!-- <text class="cls-9" transform="translate(21.91 722.83)"><tspan x="0" y="0">Home &amp; Personal Care</tspan></text>
  <text class="cls-11" transform="translate(346.78 298.9)"><tspan x="0" y="0">Pharmaceutical</tspan></text>
  <text class="cls-7" transform="translate(413.09 723.13) scale(1.3 1)"><tspan x="0" y="0">Wine</tspan></text> -->
</svg>