<svg version="1.2" xmlns="http://www.w3.org/2000/svg" viewBox="0 0 208 169" width="208" height="169">
	<title>icons-svg</title>
	<style>
		.s0 { fill: none;stroke: #000000;stroke-miterlimit:10 } 
		.s1 { fill: #000000 } 
		.s2 { fill: #ffffff } 
	</style>
	<path id="Layer" class="s0" d=""/>
	<filter id="f0">
		<feFlood flood-color="#509abd" flood-opacity="1" />
		<feBlend mode="normal" in2="SourceGraphic"/>
		<feComposite in2="SourceAlpha" operator="in" />
	</filter>
	<g id="Layer" filter="url(#f0)">
		<g id="Layer">
			<path id="Layer" fill-rule="evenodd" class="s1" d="m204.5 87.9q0 28.7 0 57.4c0 6.4-3.7 10.1-10.1 10.1q-44.4 0-88.9 0c-6.3 0-10.1-3.7-10.1-10.1q0-57.4 0-114.7c0-6.4 3.8-10.2 10.1-10.2q44.5 0 88.9 0c6.3 0 10.1 3.8 10.1 10.2q0 28.7 0 57.3zm-4.5 0.1q0-28.8 0-57.5c0-3.8-1.8-5.6-5.5-5.6q-44.5 0-89.1 0c-3.7 0-5.5 1.8-5.5 5.6q0 57.4 0 114.9c0 3.8 1.8 5.6 5.6 5.6q44.5-0.1 89 0c3.8 0 5.5-1.8 5.5-5.7q0-28.6 0-57.3z"/>
			<path id="Layer" fill-rule="evenodd" class="s2" d="m200 88q0 28.6 0 57.3c0 3.9-1.7 5.7-5.5 5.7q-44.5-0.1-89 0c-3.8 0-5.6-1.8-5.6-5.6q0-57.5 0-114.9c0-3.8 1.8-5.6 5.5-5.6q44.6 0 89.1 0c3.8 0 5.5 1.8 5.5 5.6q0 28.7 0 57.5zm-47.8-0.1q0-25.3 0-50.6c0-0.4 0.1-0.9 0-1.4-0.2-1.2-1-1.9-2.2-1.9-1.3 0-2 0.7-2.2 1.9-0.1 0.5-0.1 0.9-0.1 1.3q0 50.8 0 101.5c0 0.4 0 0.9 0.1 1.3 0.2 1.2 1 1.9 2.2 1.9 1.2 0 2-0.7 2.2-2 0.1-0.4 0-0.9 0-1.4q0-25.3 0-50.6zm-27.2-54q-4.3 0-8.7 0c-4.9 0.1-8.8 3.8-8.8 8.6 0 4.7 3.8 8.5 8.8 8.5q8.7 0.1 17.4 0c4.8 0 8.6-3.8 8.6-8.5 0-4.7-3.8-8.5-8.7-8.6-2.9 0-5.7 0-8.6 0zm-0.1 108q4.3 0 8.5 0c5.1 0 8.9-3.7 8.9-8.5 0-4.8-3.8-8.5-8.8-8.6q-8.6 0-17.2 0c-5 0.1-8.8 3.8-8.8 8.6 0 4.8 3.9 8.5 8.8 8.5 2.9 0.1 5.7 0 8.6 0zm0-85.2c-2.9 0-5.8 0-8.7 0-4.8 0-8.5 3.6-8.6 8.2-0.2 4.7 3.3 8.6 8.1 8.8q9.2 0.2 18.5 0c4.7-0.2 8.3-4.1 8.1-8.7-0.1-4.7-3.8-8.3-8.7-8.3-2.9 0-5.8 0-8.7 0zm0.1 62.5q4.2 0 8.5 0c5-0.1 8.7-3.6 8.8-8.4 0.1-4.6-3.5-8.5-8.3-8.6q-9.1-0.2-18.2 0c-4.8 0.1-8.3 4-8.2 8.6 0.1 4.7 3.8 8.3 8.6 8.4 2.9 0 5.8 0 8.7 0zm50.2-85.3q-4.3 0-8.5 0c-5.1 0.1-8.9 3.8-8.9 8.6 0 4.8 3.8 8.5 8.8 8.5q8.6 0.1 17.2 0c5 0 8.8-3.8 8.8-8.6-0.1-4.7-3.9-8.4-8.8-8.5-2.9 0-5.7 0-8.6 0zm0.1 108q4.2 0 8.4 0c5 0 8.8-3.7 8.9-8.4 0-4.8-3.8-8.6-8.8-8.7q-8.7 0-17.3 0c-4.9 0.1-8.7 3.8-8.7 8.6 0 4.8 3.8 8.5 8.8 8.5 2.9 0 5.8 0 8.7 0zm-0.2-22.7c2.9 0 5.9 0 8.8 0 4.8-0.1 8.5-3.7 8.6-8.3 0.2-4.6-3.3-8.6-8.1-8.7q-9.2-0.3-18.5 0c-4.7 0.1-8.2 4-8.1 8.6 0.1 4.7 3.8 8.3 8.6 8.4 2.9 0 5.8 0 8.7 0zm0-62.5q-4.3 0-8.7 0c-4.8 0-8.5 3.6-8.6 8.3-0.1 4.5 3.4 8.5 8.1 8.6q9.3 0.3 18.6 0c4.8-0.1 8.2-4.1 8-8.8-0.1-4.5-3.8-8.1-8.5-8.1-2.9 0-5.9 0-8.8 0zm-50.2 39.7c2.9 0 5.8 0.2 8.7 0 1.5-0.1 3.2-0.5 4.5-1.2 3.4-1.8 4.9-5.8 3.9-9.4-0.9-3.6-4.1-6.3-7.8-6.3-6.2-0.1-12.4-0.1-18.6 0q-0.8 0-1.5 0.2c-4.2 1-7 4.9-6.5 9.1 0.4 4.3 3.9 7.5 8.3 7.6 3 0.1 6 0 9 0zm50.3-17c-3.1 0-6.3 0-9.4 0-2.6 0.1-4.6 1.2-6.2 3.2-2.1 2.7-2.5 5.7-1.1 8.8 1.4 3.1 3.9 4.9 7.4 5 6.1 0.1 12.3 0 18.4 0q0.7 0 1.4-0.2c4.2-0.9 7.1-4.8 6.7-9.1-0.4-4.2-3.9-7.6-8.2-7.7-3 0-6 0-9 0z"/>
			<path id="Layer" class="s1" d="m152.2 87.9q0 25.3 0 50.6c0 0.5 0.1 1 0 1.4-0.2 1.3-1 2-2.2 2-1.2 0-2-0.7-2.2-1.9-0.1-0.4-0.1-0.9-0.1-1.3q0-50.7 0-101.5c0-0.4 0-0.8 0.1-1.2 0.2-1.3 0.9-2 2.2-2 1.2 0 2 0.7 2.2 1.9 0.1 0.5 0 1 0 1.4q0 25.3 0 50.6z"/>
			<path id="Layer" fill-rule="evenodd" class="s1" d="m125 33.9q4.3 0 8.6 0c4.9 0.1 8.7 3.9 8.7 8.6 0 4.7-3.8 8.5-8.6 8.5q-8.7 0.1-17.4 0c-5 0-8.8-3.8-8.8-8.5 0-4.8 3.8-8.5 8.8-8.6q4.3 0 8.7 0zm2.2 12.7c0.5 0 0.9 0 1.3 0 1.9 0 3.8 0.1 5.6-0.1 2.1-0.2 3.7-2 3.7-4 0-1.9-1.4-3.8-3.3-3.9-2.4-0.2-4.8-0.1-7.3-0.1z"/>
			<path id="Layer" fill-rule="evenodd" class="s1" d="m124.9 141.9q-4.3 0-8.6 0c-5 0-8.8-3.7-8.8-8.5 0-4.8 3.8-8.5 8.8-8.6q8.6 0 17.2 0c5 0.1 8.8 3.8 8.8 8.6 0 4.7-3.8 8.5-8.9 8.5q-4.2 0-8.5 0zm2.3-4.5c2.5 0 4.8 0.1 7.2-0.1 2-0.1 3.3-1.9 3.4-3.8 0-2-1.4-3.9-3.4-4-2.4-0.2-4.7-0.1-7.2-0.1 0 0 0 8 0 8z"/>
			<path id="Layer" fill-rule="evenodd" class="s1" d="m124.9 56.7c2.9 0 5.8 0 8.7 0 4.8 0 8.5 3.6 8.7 8.3 0.1 4.6-3.4 8.5-8.2 8.7q-9.2 0.2-18.4 0c-4.8-0.2-8.3-4.1-8.2-8.8 0.2-4.6 3.9-8.2 8.7-8.2 2.9 0 5.8 0 8.7 0zm2.3 12.4q0 0 0 0zm7.6-0.1c1.7-0.1 3-2 3-3.9-0.1-1.8-1.5-3.6-3.3-3.8-2.4-0.2-4.8 0-7.3 0v7.8c2.6 0 5.1 0.1 7.6-0.1z"/>
			<path id="Layer" fill-rule="evenodd" class="s1" d="m124.9 119.2c-2.9 0-5.8 0-8.7 0-4.8-0.1-8.6-3.7-8.7-8.3-0.1-4.7 3.5-8.6 8.3-8.7q9.1-0.2 18.2 0c4.8 0.1 8.4 4 8.3 8.6-0.1 4.8-3.9 8.4-8.8 8.4q-4.3 0-8.6 0zm2.3-4.5c2.5 0 4.8 0 7.1-0.1 2-0.1 3.4-1.8 3.5-3.8 0.1-1.9-1.3-3.8-3.2-4-2.4-0.2-4.9 0-7.4 0 0 0 0 7.9 0 7.9z"/>
			<path id="Layer" fill-rule="evenodd" class="s1" d="m175.1 33.9c2.8 0 5.7 0 8.5 0 5 0.1 8.8 3.8 8.8 8.6 0 4.7-3.8 8.5-8.7 8.5q-8.6 0.1-17.3 0c-4.9 0-8.7-3.7-8.8-8.5 0-4.8 3.9-8.5 8.9-8.6 2.9 0 5.7 0 8.6 0zm2.3 12.6c2.3 0 4.4 0.1 6.6 0 2.2-0.1 3.8-1.7 3.9-3.8 0.1-2-1.3-4-3.4-4.1-2.3-0.2-4.7-0.1-7.1-0.1 0 0 0 8.1 0 8z"/>
			<path id="Layer" fill-rule="evenodd" class="s1" d="m175.1 141.9q-4.3 0-8.7 0c-4.9 0-8.7-3.7-8.7-8.5-0.1-4.7 3.8-8.5 8.7-8.6q8.6 0 17.3 0c5 0.1 8.8 3.9 8.7 8.7 0 4.8-3.8 8.4-8.8 8.4q-4.2 0.1-8.4 0zm2.2-4.5c2.1 0 4 0 5.9 0q0.4 0 0.8 0c2.2-0.2 3.7-1.8 3.8-3.8 0.1-2-1.3-4-3.4-4.1-2.3-0.2-4.7-0.1-7.1-0.1 0 0 0 8 0 8z"/>
			<path id="Layer" fill-rule="evenodd" class="s1" d="m175 119.2c-2.9 0-5.8 0-8.7 0-4.8-0.1-8.5-3.7-8.6-8.4-0.1-4.6 3.4-8.5 8.1-8.6q9.3-0.3 18.5 0c4.8 0.2 8.2 4.1 8.1 8.7-0.1 4.6-3.8 8.2-8.6 8.3-2.9 0-5.9 0-8.8 0zm2.3-4.5c2.5 0 4.8 0 7.2-0.1 1.8-0.1 3.2-1.7 3.4-3.5 0.2-1.8-0.9-3.9-2.6-4.1-2.6-0.3-5.3-0.1-8-0.1z"/>
			<path id="Layer" fill-rule="evenodd" class="s1" d="m175 56.7c3 0 5.9 0 8.9 0 4.6 0 8.4 3.6 8.5 8.2 0.2 4.6-3.3 8.6-8 8.7q-9.3 0.3-18.7 0c-4.7-0.1-8.2-4-8-8.6 0.1-4.7 3.8-8.3 8.6-8.3 2.9 0 5.8 0 8.7 0zm2.3 12.4c2.6 0 5.1 0.1 7.6-0.1 1.9-0.2 3.2-2.3 3-4.2-0.2-1.9-1.7-3.5-3.7-3.6-2.2-0.1-4.5 0-6.9 0z"/>
			<path id="Layer" fill-rule="evenodd" class="s1" d="m124.9 96.4c-3 0-6 0.1-9 0-4.4-0.1-7.9-3.3-8.3-7.6-0.5-4.2 2.3-8.1 6.5-9.1q0.7-0.2 1.5-0.2c6.2 0 12.4-0.1 18.5 0 3.8 0 7 2.7 7.9 6.3 1 3.7-0.6 7.6-3.9 9.4-1.3 0.7-3 1.1-4.5 1.2-2.9 0.2-5.8 0-8.7 0zm2.3-4.5c2.5 0 5 0.1 7.4-0.1 1.8-0.1 3.1-1.9 3.2-3.8 0-1.8-1.3-3.7-3-3.9-2.5-0.2-5 0-7.6 0z"/>
			<path id="Layer" fill-rule="evenodd" class="s1" d="m175.2 79.4c3 0 6 0 9 0.1 4.3 0.1 7.8 3.4 8.2 7.7 0.4 4.2-2.5 8.1-6.7 9.1q-0.7 0.1-1.4 0.1c-6.2 0-12.3 0.1-18.4 0-3.5-0.1-6-1.8-7.4-4.9-1.5-3.2-1-6.2 1.1-8.9 1.5-2 3.6-3.1 6.2-3.1 3.1-0.1 6.2 0 9.4 0zm2.2 12.4q0 0 0 0zm7 0c1.9-0.1 3.5-1.9 3.5-3.9 0.1-1.9-1.3-3.8-3.2-3.9-2.4-0.2-4.8-0.1-7.3-0.1v7.9c2.4 0 4.7 0.1 7 0z"/>
			<path id="Layer" class="s2" d="m127.3 46.6v-8.1c2.4 0 4.8-0.1 7.2 0.1 1.9 0.1 3.3 2 3.3 3.9 0 2-1.6 3.8-3.6 4-1.9 0.2-3.8 0.1-5.6 0.1-0.5 0-0.9 0-1.3 0z"/>
			<path id="Layer" class="s2" d="m127.2 137.4v-8c2.5 0 4.8-0.1 7.2 0.1 2 0.1 3.4 2 3.4 4-0.1 1.9-1.4 3.7-3.4 3.8-2.4 0.2-4.7 0.1-7.2 0.1z"/>
			<path id="Layer" class="s2" d="m127.2 69.1v-7.8c2.5 0 4.9-0.2 7.3 0 1.9 0.1 3.2 1.9 3.3 3.8 0 1.8-1.3 3.8-3 3.9-2.5 0.3-5 0.1-7.6 0.1z"/>
			<path id="Layer" class="s2" d="m127.2 114.6v-7.8c2.5 0 5-0.2 7.4 0 1.9 0.1 3.3 2.1 3.2 4-0.1 1.9-1.6 3.7-3.5 3.8-2.3 0.1-4.6 0-7.1 0z"/>
			<path id="Layer" class="s2" d="m177.4 46.6v-8.1c2.4 0 4.8-0.1 7.1 0.1 2.1 0.1 3.5 2.1 3.4 4.1-0.1 2.1-1.7 3.7-3.9 3.8-2.2 0.1-4.3 0-6.6 0.1z"/>
			<path id="Layer" class="s2" d="m177.4 137.4v-8c2.4 0 4.8-0.2 7.1 0.1 2.1 0.1 3.5 2.1 3.4 4.1-0.1 2-1.7 3.6-3.8 3.8q-0.4 0-0.8 0c-1.9 0-3.9 0-5.9 0z"/>
			<path id="Layer" class="s2" d="m177.3 114.7v-7.8c2.7 0 5.4-0.2 8 0.1 1.7 0.2 2.8 2.3 2.6 4.1-0.2 1.8-1.6 3.4-3.5 3.5-2.3 0.2-4.6 0.1-7.1 0.1z"/>
			<path id="Layer" class="s2" d="m177.4 61.2c2.3 0 4.6 0 6.8 0 2 0.1 3.5 1.7 3.7 3.7 0.2 1.9-1.1 4-3 4.1-2.5 0.3-5 0.1-7.6 0.1v-7.9z"/>
			<path id="Layer" class="s2" d="m127.2 91.9v-7.8c2.6 0 5.1-0.2 7.5 0 1.8 0.2 3.1 2.1 3.1 3.9-0.1 1.9-1.4 3.7-3.3 3.8-2.4 0.2-4.8 0.1-7.3 0.1z"/>
			<path id="Layer" class="s2" d="m177.4 91.9v-7.9c2.5 0 4.9-0.1 7.3 0 1.9 0.2 3.3 2.1 3.2 4 0 2-1.6 3.8-3.5 3.9-2.3 0.1-4.6 0-7 0z"/>
		</g>
		<g id="Layer">
			<g id="Layer">
				<path id="Layer" class="s2" d="m132.6 129.8c0 0 13-28.5-21.7-26.8l-53.3 33.2c0 0-2.5 29.3 22.1 26.9l50.7-1.1c0 0 23.8-12.1 2.2-32.2z"/>
				<path id="Layer" fill-rule="evenodd" class="s1" d="m135.1 129.6c6.6 5.3 9.2 13.9 6.5 21.8-2.8 7.9-10.2 13.2-18.6 13.2q-25.1 0-50.2 0c-5.2 0-9.8-1.9-13.6-5.6-0.8-0.7-1.5-1-2.5-1-10.4 0.1-20.8 0.1-31.3 0-10.3 0-18.4-6.8-20.3-16.9-0.3-1.6-0.3-3.2-0.3-4.7 0-23.6 0.2-47.1-0.1-70.6-0.2-12 4.5-21.1 14.2-27.8 3.1-2.2 6.3-4.4 9.5-6.5 0.4-0.4 0.9-0.7 1.5-1.1-2.7-1.5-3.2-3.8-3.1-6.5 0.1-3.2 0-6.5 0-9.8 0.1-3.9 2.2-6 6.1-6q19.4 0 38.8 0c3.9 0 6 2.1 6 6.1q0 5.2 0 10.4c0 2.8-0.6 4-3 5.8 1.1 0.8 2.2 1.5 3.3 2.3 3.6 2.6 7.4 5 10.9 7.8 7.6 6.1 11 14.2 10.9 23.9-0.1 13.4 0 26.8 0 40.2v2.2c2.3-1.3 4.4-2.5 6.4-3.7 5.7-3.2 11.6-3.7 17.7-1.2 9.9 4.2 14.5 15.3 10.5 25.3-0.4 1.1-0.3 1.7 0.7 2.4zm-22.1-23.7c5.7 3.2 11.2 6.3 17 9.5-1.9-6.9-10.2-11.6-17-9.5zm-9.9 5c8.8 4.9 17.5 9.8 26.5 14.8 0.3-0.8 0.4-1.4 0.7-1.9 0.6-1.6 0.2-2.4-1.3-3.2-6.2-3.3-12.2-6.8-18.3-10.2q-3.7-2.1-7.3 0.2c-0.1 0-0.1 0.1-0.3 0.3zm-8.8 4.9q-0.2 0.1-0.4 0.3c0.1 0.1 0.2 0.3 0.3 0.4q14.2 7.9 28.3 15.8c0.3 0.1 0.9 0.2 1.2 0.1 1-0.7 2-1.5 3.2-2.4-0.7-0.4-1.1-0.6-1.5-0.9q-12.1-6.7-24.2-13.5-3.5-1.9-6.9 0.2zm16.1 20.2q3.7 2.1 7.6-0.4c-9.1-5.1-18.1-10.2-27.1-15.2 0.5 1.5 1.3 2.8 2 4.1 0.8 1.9 2.2 3.1 4 4 4.5 2.4 9 5 13.5 7.5zm-10.6-0.1q-0.1 0.1-0.2 0.3c1.5 2.5 2.9 5 4.4 7.6 1.6-1 3.1-1.8 4.8-2.8-3.1-1.8-6.1-3.4-9-5.1zm-67.8-110.2h40.5v-12.5h-40.5zm-14.5 20c-5.2 4.4-7.6 10.2-7.6 17.2h84.9c-0.3-1.9-0.4-3.7-0.8-5.5-1.2-5.9-4.7-10.4-9.4-13.9-5.8-4.3-11.8-8.3-17.8-12.3-0.4-0.3-1.2-0.4-1.8-0.4-7 0-14 0.2-21 0-3.9-0.2-7.4 0.4-10.3 3.2-0.6 0.5-1.3 0.8-1.9 1.2-4.8 3.5-9.8 6.7-14.3 10.5zm35.8 98c0.5-3.1 1.5-6.1 2.3-9h-45.9c0.2 2.1 0.1 4 0.5 5.9 1.5 7.4 7.5 12.3 15.3 12.4 9.4 0.1 18.7 0 28.1 0 0.3 0 0.7-0.1 1.2-0.1-1.2-3.1-2-6.1-1.5-9.2zm3.4-14.1c2.6 0 4.7-0.5 6.9-1.8 9.9-5.9 19.8-11.5 29.8-17.2 1-0.6 1.4-1.3 1.4-2.5 0-12.7 0-25.5 0-38.3v-1.7h-84.9v61.5h2c15 0 29.9-0.1 44.8 0zm37.2 20c1.9-1.1 3.7-2.1 5.7-3.3-4.9-8.5-9.7-16.8-14.5-25.1-6.6 3.8-13.1 7.5-19.4 11.2-7.2 4.2-9.5 13-5.5 20 4 6.8 12.8 9.2 19.9 5.2 4.7-2.6 9.2-5.3 13.8-8zm1.4 5c-2.8 1.7-5.4 3.2-8.4 4.9h8.4zm41.5-14.2c-1-3.2-3-5.7-5.5-7.3-2.4 1.6-4.4 3.2-6.6 4.5-7.6 4.5-15.3 8.9-23 13.4-0.5 0.2-1.1 0.9-1.2 1.4-0.1 2.3 0 4.6 0 7.1 8.1 0 16 0.3 23.8-0.1 9.4-0.5 15.5-10.1 12.5-19z"/>
			</g>
			<path id="Layer" fill-rule="evenodd" class="s1" d="m60.9 107.4c0 2.9 0 5.7 0 8.4 0 2.8-0.7 3.5-3.6 3.5q-5.1 0-10.2 0c-2.6 0-3.4-0.8-3.4-3.3 0-2.8 0-5.6 0-8.6-2.4 0-4.7 0-7 0-4.8 0-5-0.3-5-5q0-2.8 0-5.7c-0.1-6.9-0.3-6.7 6.7-6.6 1.7 0 3.4 0 5.3 0 0-2.8 0-5.5 0-8.1 0-3.3 0.6-3.9 3.8-3.9q5.1 0 10.3 0c2.2 0 3.1 0.8 3.1 3.1 0 2.9 0 5.8 0 8.9 3 0 5.8 0 8.6 0 2.6 0 3.4 0.7 3.4 3.2q0 5.3 0 10.6c0 2.7-0.8 3.4-3.6 3.4-2.7 0.1-5.4 0-8.4 0zm-5.1 5q0-3.4 0-6.9c0.1-2.2 0.9-3.1 3.1-3.1 1.2 0 2.3 0 3.5 0 1.7 0 3.5 0 5.4 0v-6.9c-0.3-0.2-0.3-0.2-0.4-0.2-2.9 0-5.7 0-8.6-0.1-1.9 0-2.8-0.9-2.9-2.8-0.1-0.8 0-1.6 0-2.5q0-3.3 0-6.5h-7.2c0 2.4 0 4.7 0 7 0 4.5-0.4 4.8-4.7 4.8q-3.6 0-7.2 0v7.2q4.3 0 8.5 0c2.6 0 3.4 0.8 3.4 3.5 0 2.7 0 5.5 0 8.4h7.2c0-0.7-0.1-1.3-0.1-1.9z"/>
		</g>
	</g>
</svg>